<svg width="18" height="18" viewBox="0 0 18 18" fill="none" xmlns="http://www.w3.org/2000/svg">
<path d="M15.54 6.00515L5.87997 0.465153C5.35725 0.163313 4.76397 0.00519095 4.16036 0.00684884C3.55676 0.00850674 2.96435 0.169885 2.4433 0.474592C1.92225 0.7793 1.49112 1.21648 1.19372 1.74173C0.896306 2.26698 0.743208 2.86159 0.749971 3.46515V14.5852C0.749971 15.4922 1.11029 16.3621 1.75167 17.0035C2.39304 17.6448 3.26293 18.0052 4.16997 18.0052C4.77041 18.0041 5.36006 17.8455 5.87997 17.5452L15.54 12.0052C16.059 11.7047 16.49 11.2731 16.7896 10.7536C17.0891 10.2341 17.2468 9.64488 17.2468 9.04515C17.2468 8.44543 17.0891 7.85625 16.7896 7.33672C16.49 6.81718 16.059 6.38556 15.54 6.08515V6.00515ZM14.54 10.1952L4.87997 15.8152C4.66346 15.9379 4.41884 16.0024 4.16997 16.0024C3.9211 16.0024 3.67648 15.9379 3.45997 15.8152C3.24407 15.6905 3.06479 15.5112 2.94015 15.2953C2.81552 15.0794 2.74993 14.8345 2.74997 14.5852V3.42515C2.74993 3.17585 2.81552 2.93093 2.94015 2.71501C3.06479 2.4991 3.24407 2.3198 3.45997 2.19515C3.67738 2.07431 3.92127 2.00904 4.16997 2.00515C4.4185 2.01025 4.66211 2.07544 4.87997 2.19515L14.54 7.77515C14.756 7.89975 14.9353 8.07902 15.06 8.29494C15.1847 8.51086 15.2504 8.75581 15.2504 9.00515C15.2504 9.2545 15.1847 9.49945 15.06 9.71536C14.9353 9.93128 14.756 10.1106 14.54 10.2352V10.1952Z" fill="#0171C9"/>
</svg>
