<svg width="80" height="143" viewBox="0 0 80 143" fill="none" xmlns="http://www.w3.org/2000/svg">
<path d="M2.70703 0.666454C1.97054 0.287161 1.06601 0.576732 0.686717 1.31323C0.307424 2.04973 0.596996 2.95425 1.33349 3.33355L2.70703 0.666454ZM35.4522 30.4599L36.6966 29.6223L35.4522 30.4599ZM40.4902 59.4189L39.1569 58.7318L40.4902 59.4189ZM34.7266 65.0843L35.2016 66.5071L35.3727 66.45L35.5253 66.3539L34.7266 65.0843ZM18.4398 62.4402L19.2293 61.1648L18.4398 62.4402ZM9.35986 50.7307L7.94498 51.2288L9.35986 50.7307ZM10.8547 35.9962L12.1321 36.7826L12.1678 36.7245L12.1982 36.6635L10.8547 35.9962ZM41.7914 45.0661L42.6449 43.8325L41.7914 45.0661ZM65.6151 75.2033L64.2698 75.8668L65.6151 75.2033ZM72.0467 115.327L70.5476 115.274L72.0467 115.327ZM66.1824 138.241L67.648 138.561L66.1824 138.241ZM63.6777 141.404C63.895 142.204 64.7192 142.676 65.5186 142.458L78.5459 138.917C79.3453 138.7 79.8172 137.875 79.5999 137.076C79.3825 136.277 78.5583 135.805 77.7589 136.022L66.1791 139.17L63.0313 127.59C62.814 126.791 61.9897 126.319 61.1903 126.536C60.3909 126.753 59.919 127.578 60.1363 128.377L63.6777 141.404ZM1.33349 3.33355C5.85362 5.66139 12.7266 10.6356 19.1986 16.0996C25.6859 21.5764 31.5677 27.3752 34.2079 31.2975L36.6966 29.6223C33.8064 25.3286 27.6441 19.3034 21.1339 13.8073C14.6085 8.29833 7.53068 3.15061 2.70703 0.666454L1.33349 3.33355ZM34.2079 31.2975C36.6043 34.8577 38.8365 39.8902 39.9536 45.0021C41.0789 50.1514 41.0179 55.1201 39.1569 58.7318L41.8236 60.1059C44.1495 55.5921 44.0731 49.8007 42.8844 44.3616C41.6876 38.8851 39.3072 33.5008 36.6966 29.6223L34.2079 31.2975ZM39.1569 58.7318C38.7038 59.6109 38.2435 60.3276 37.5089 61.0834C36.757 61.857 35.6739 62.7162 33.9278 63.8146L35.5253 66.3539C37.3811 65.1864 38.6804 64.1823 39.6601 63.1743C40.6571 62.1486 41.2777 61.1655 41.8236 60.1059L39.1569 58.7318ZM34.2516 63.6615C31.3515 64.6297 28.8445 64.7488 26.4768 64.2826C24.0847 63.8115 21.7528 62.7269 19.2293 61.1648L17.6503 63.7157C20.3313 65.3753 23.0122 66.6579 25.8972 67.226C28.8065 67.799 31.8406 67.6292 35.2016 66.5071L34.2516 63.6615ZM19.2293 61.1648C14.6112 58.3062 12.5163 55.1795 10.7747 50.2326L7.94498 51.2288C9.86385 56.6795 12.3338 60.4247 17.6503 63.7157L19.2293 61.1648ZM10.7747 50.2326C9.21488 45.8017 9.59153 40.9098 12.1321 36.7826L9.57733 35.2099C6.53358 40.1546 6.10312 45.9968 7.94498 51.2288L10.7747 50.2326ZM12.1982 36.6635C12.7966 35.4585 14.1771 34.829 16.8491 35.1074C19.4679 35.3802 22.7495 36.4998 26.1283 38.0035C32.8529 40.9964 39.4709 45.2846 40.938 46.2996L42.6449 43.8325C41.0936 42.7593 34.3059 38.3594 27.3481 35.2627C23.8857 33.7218 20.2569 32.4462 17.16 32.1235C14.1161 31.8064 10.9756 32.3807 9.51128 35.329L12.1982 36.6635ZM40.938 46.2996C52.4627 54.2727 58.4841 64.1361 64.2698 75.8668L66.9604 74.5398C61.0986 62.6549 54.7994 52.2414 42.6449 43.8325L40.938 46.2996ZM64.2698 75.8668C70.5444 88.5887 71.0496 101.009 70.5476 115.274L73.5458 115.379C74.0514 101.008 73.5785 87.9584 66.9604 74.5398L64.2698 75.8668ZM70.5476 115.274C70.4141 119.069 69.4267 122.693 68.217 126.42C67.0257 130.089 65.5847 133.944 64.7169 137.921L67.648 138.561C68.4735 134.777 69.8235 131.187 71.0704 127.346C72.2989 123.562 73.3969 119.61 73.5458 115.379L70.5476 115.274ZM64.7169 137.921C64.4883 138.969 64.3121 139.412 63.8234 140.266L66.4269 141.756C67.0694 140.634 67.3549 139.904 67.648 138.561L64.7169 137.921Z" fill="black"/>
</svg>
