<svg width="1008" height="649" viewBox="0 0 1008 649" fill="none" xmlns="http://www.w3.org/2000/svg">
<rect x="476.5" y="122.753" width="55" height="55" rx="27.5" fill="#8C26FF"/>
<rect x="476.5" y="122.753" width="55" height="55" rx="27.5" stroke="black"/>
<path d="M504 163.753H519.75V166.003H504V163.753ZM516.375 161.503H507.375C506.134 161.503 505.125 160.494 505.125 159.253V153.628C505.125 152.387 506.134 151.378 507.375 151.378H516.375C517.616 151.378 518.625 152.387 518.625 153.628V159.253C518.625 160.494 517.616 161.503 516.375 161.503ZM507.375 153.628V159.253H516.375V153.628H507.375ZM502.875 158.128H497.25C496.009 158.128 495 157.119 495 155.878V151.378H497.25V155.878H502.875V158.128ZM488.25 146.878H504V149.128H488.25V146.878ZM500.625 144.628H491.625C490.384 144.628 489.375 143.619 489.375 142.378V136.753C489.375 135.512 490.384 134.503 491.625 134.503H500.625C501.866 134.503 502.875 135.512 502.875 136.753V142.378C502.875 143.619 501.866 144.628 500.625 144.628ZM491.625 136.753V142.378H500.625V136.753H491.625Z" fill="white"/>
<path d="M504 178.253C504 179.896 504 194.271 504 201.253" stroke="black"/>
<rect x="397.499" y="201.753" width="213" height="60" rx="3.5" stroke="url(#paint0_radial_348_530)"/>
<path d="M419.569 237.019C418.645 237.019 417.851 236.86 417.189 236.543C416.526 236.216 415.985 235.792 415.565 235.269C415.145 234.737 414.832 234.168 414.627 233.561C414.431 232.945 414.333 232.348 414.333 231.769V231.461C414.333 230.826 414.435 230.201 414.641 229.585C414.846 228.96 415.159 228.395 415.579 227.891C416.008 227.387 416.545 226.986 417.189 226.687C417.842 226.379 418.612 226.225 419.499 226.225C420.423 226.225 421.239 226.398 421.949 226.743C422.658 227.088 423.223 227.569 423.643 228.185C424.072 228.792 424.324 229.506 424.399 230.327H422.089C422.023 229.916 421.874 229.566 421.641 229.277C421.407 228.988 421.104 228.764 420.731 228.605C420.367 228.446 419.956 228.367 419.499 228.367C419.041 228.367 418.635 228.446 418.281 228.605C417.926 228.764 417.627 228.988 417.385 229.277C417.151 229.566 416.969 229.912 416.839 230.313C416.717 230.705 416.657 231.144 416.657 231.629C416.657 232.105 416.717 232.544 416.839 232.945C416.969 233.337 417.156 233.682 417.399 233.981C417.651 234.27 417.959 234.494 418.323 234.653C418.687 234.802 419.102 234.877 419.569 234.877C420.278 234.877 420.875 234.704 421.361 234.359C421.855 234.014 422.154 233.538 422.257 232.931H424.553C424.469 233.678 424.217 234.364 423.797 234.989C423.386 235.605 422.821 236.1 422.103 236.473C421.393 236.837 420.549 237.019 419.569 237.019ZM429.688 237.019C429.016 237.019 428.419 236.916 427.896 236.711C427.373 236.496 426.93 236.207 426.566 235.843C426.211 235.479 425.941 235.064 425.754 234.597C425.567 234.121 425.474 233.622 425.474 233.099V232.777C425.474 232.245 425.567 231.741 425.754 231.265C425.95 230.78 426.23 230.355 426.594 229.991C426.967 229.627 427.415 229.342 427.938 229.137C428.461 228.922 429.044 228.815 429.688 228.815C430.351 228.815 430.939 228.922 431.452 229.137C431.975 229.342 432.418 229.627 432.782 229.991C433.146 230.355 433.426 230.78 433.622 231.265C433.818 231.741 433.916 232.245 433.916 232.777V233.099C433.916 233.622 433.823 234.121 433.636 234.597C433.449 235.064 433.174 235.479 432.81 235.843C432.455 236.207 432.017 236.496 431.494 236.711C430.971 236.916 430.369 237.019 429.688 237.019ZM429.688 235.129C430.127 235.129 430.491 235.036 430.78 234.849C431.069 234.662 431.289 234.401 431.438 234.065C431.597 233.729 431.676 233.356 431.676 232.945C431.676 232.506 431.597 232.124 431.438 231.797C431.279 231.461 431.051 231.195 430.752 230.999C430.463 230.803 430.108 230.705 429.688 230.705C429.277 230.705 428.923 230.803 428.624 230.999C428.325 231.195 428.097 231.461 427.938 231.797C427.789 232.124 427.714 232.506 427.714 232.945C427.714 233.356 427.789 233.729 427.938 234.065C428.087 234.401 428.311 234.662 428.61 234.849C428.909 235.036 429.268 235.129 429.688 235.129ZM435.479 236.753V229.081H437.257V232.385H437.131C437.131 231.601 437.229 230.948 437.425 230.425C437.621 229.902 437.915 229.51 438.307 229.249C438.699 228.978 439.18 228.843 439.749 228.843H439.847C440.426 228.843 440.907 228.978 441.289 229.249C441.681 229.51 441.975 229.902 442.171 230.425C442.377 230.948 442.479 231.601 442.479 232.385H441.933C441.933 231.601 442.031 230.948 442.227 230.425C442.433 229.902 442.731 229.51 443.123 229.249C443.515 228.978 443.996 228.843 444.565 228.843H444.663C445.242 228.843 445.727 228.978 446.119 229.249C446.521 229.51 446.824 229.902 447.029 230.425C447.235 230.948 447.337 231.601 447.337 232.385V236.753H445.097V232.259C445.097 231.839 444.985 231.498 444.761 231.237C444.547 230.976 444.239 230.845 443.837 230.845C443.436 230.845 443.119 230.98 442.885 231.251C442.652 231.512 442.535 231.862 442.535 232.301V236.753H440.281V232.259C440.281 231.839 440.169 231.498 439.945 231.237C439.731 230.976 439.427 230.845 439.035 230.845C438.625 230.845 438.303 230.98 438.069 231.251C437.836 231.512 437.719 231.862 437.719 232.301V236.753H435.479ZM449.247 239.553V229.081H451.025V232.399L450.787 232.385C450.824 231.62 450.983 230.976 451.263 230.453C451.543 229.921 451.921 229.524 452.397 229.263C452.873 228.992 453.41 228.857 454.007 228.857C454.539 228.857 455.02 228.955 455.449 229.151C455.888 229.347 456.261 229.622 456.569 229.977C456.886 230.322 457.124 230.733 457.283 231.209C457.451 231.676 457.535 232.189 457.535 232.749V233.071C457.535 233.622 457.456 234.14 457.297 234.625C457.138 235.101 456.905 235.516 456.597 235.871C456.298 236.226 455.93 236.506 455.491 236.711C455.062 236.907 454.567 237.005 454.007 237.005C453.428 237.005 452.906 236.888 452.439 236.655C451.982 236.412 451.613 236.048 451.333 235.563C451.053 235.068 450.899 234.443 450.871 233.687L451.487 234.527V239.553H449.247ZM453.377 235.129C453.76 235.129 454.091 235.036 454.371 234.849C454.66 234.662 454.884 234.401 455.043 234.065C455.202 233.729 455.281 233.342 455.281 232.903C455.281 232.464 455.202 232.082 455.043 231.755C454.884 231.428 454.665 231.176 454.385 230.999C454.105 230.812 453.769 230.719 453.377 230.719C453.041 230.719 452.724 230.798 452.425 230.957C452.126 231.116 451.884 231.344 451.697 231.643C451.52 231.932 451.431 232.287 451.431 232.707V233.225C451.431 233.626 451.524 233.972 451.711 234.261C451.907 234.541 452.154 234.756 452.453 234.905C452.752 235.054 453.06 235.129 453.377 235.129ZM459.091 236.753V229.081H460.869V232.371H460.827C460.827 231.288 461.055 230.453 461.513 229.865C461.979 229.277 462.651 228.983 463.529 228.983H463.823V230.915H463.263C462.647 230.915 462.171 231.083 461.835 231.419C461.499 231.746 461.331 232.222 461.331 232.847V236.753H459.091ZM468.456 237.019C467.803 237.019 467.224 236.907 466.72 236.683C466.226 236.459 465.81 236.16 465.474 235.787C465.148 235.404 464.896 234.98 464.718 234.513C464.55 234.037 464.466 233.552 464.466 233.057V232.777C464.466 232.264 464.55 231.774 464.718 231.307C464.896 230.831 465.148 230.406 465.474 230.033C465.801 229.66 466.207 229.366 466.692 229.151C467.187 228.927 467.747 228.815 468.372 228.815C469.194 228.815 469.884 229.002 470.444 229.375C471.014 229.739 471.448 230.22 471.746 230.817C472.045 231.405 472.194 232.049 472.194 232.749V233.505H465.404V232.231H470.836L470.108 232.819C470.108 232.362 470.043 231.97 469.912 231.643C469.782 231.316 469.586 231.069 469.324 230.901C469.072 230.724 468.755 230.635 468.372 230.635C467.98 230.635 467.649 230.724 467.378 230.901C467.108 231.078 466.902 231.34 466.762 231.685C466.622 232.021 466.552 232.436 466.552 232.931C466.552 233.388 466.618 233.79 466.748 234.135C466.879 234.471 467.084 234.732 467.364 234.919C467.644 235.106 468.008 235.199 468.456 235.199C468.867 235.199 469.203 235.12 469.464 234.961C469.726 234.802 469.903 234.606 469.996 234.373H472.054C471.942 234.886 471.723 235.344 471.396 235.745C471.07 236.146 470.659 236.459 470.164 236.683C469.67 236.907 469.1 237.019 468.456 237.019ZM473.679 236.753V226.533H475.919V232.427H475.583C475.583 231.652 475.681 230.999 475.877 230.467C476.073 229.935 476.362 229.534 476.745 229.263C477.127 228.983 477.608 228.843 478.187 228.843H478.285C479.134 228.843 479.783 229.146 480.231 229.753C480.679 230.35 480.903 231.228 480.903 232.385V236.753H478.663V232.245C478.663 231.825 478.537 231.489 478.285 231.237C478.042 230.976 477.72 230.845 477.319 230.845C476.899 230.845 476.558 230.98 476.297 231.251C476.045 231.522 475.919 231.881 475.919 232.329V236.753H473.679ZM486.325 237.019C485.672 237.019 485.093 236.907 484.589 236.683C484.095 236.459 483.679 236.16 483.343 235.787C483.017 235.404 482.765 234.98 482.587 234.513C482.419 234.037 482.335 233.552 482.335 233.057V232.777C482.335 232.264 482.419 231.774 482.587 231.307C482.765 230.831 483.017 230.406 483.343 230.033C483.67 229.66 484.076 229.366 484.561 229.151C485.056 228.927 485.616 228.815 486.241 228.815C487.063 228.815 487.753 229.002 488.313 229.375C488.883 229.739 489.317 230.22 489.615 230.817C489.914 231.405 490.063 232.049 490.063 232.749V233.505H483.273V232.231H488.705L487.977 232.819C487.977 232.362 487.912 231.97 487.781 231.643C487.651 231.316 487.455 231.069 487.193 230.901C486.941 230.724 486.624 230.635 486.241 230.635C485.849 230.635 485.518 230.724 485.247 230.901C484.977 231.078 484.771 231.34 484.631 231.685C484.491 232.021 484.421 232.436 484.421 232.931C484.421 233.388 484.487 233.79 484.617 234.135C484.748 234.471 484.953 234.732 485.233 234.919C485.513 235.106 485.877 235.199 486.325 235.199C486.736 235.199 487.072 235.12 487.333 234.961C487.595 234.802 487.772 234.606 487.865 234.373H489.923C489.811 234.886 489.592 235.344 489.265 235.745C488.939 236.146 488.528 236.459 488.033 236.683C487.539 236.907 486.969 237.019 486.325 237.019ZM491.548 236.753V229.081H493.326V232.371H493.2C493.2 231.587 493.298 230.934 493.494 230.411C493.699 229.888 494.007 229.496 494.418 229.235C494.828 228.974 495.328 228.843 495.916 228.843H496.014C496.91 228.843 497.591 229.137 498.058 229.725C498.534 230.304 498.772 231.186 498.772 232.371V236.753H496.532V232.245C496.532 231.834 496.41 231.498 496.168 231.237C495.925 230.976 495.598 230.845 495.188 230.845C494.768 230.845 494.427 230.98 494.166 231.251C493.914 231.512 493.788 231.858 493.788 232.287V236.753H491.548ZM503.593 236.991C502.501 236.991 501.647 236.767 501.031 236.319C500.415 235.871 500.088 235.241 500.051 234.429H502.039C502.076 234.672 502.221 234.891 502.473 235.087C502.734 235.274 503.121 235.367 503.635 235.367C504.027 235.367 504.349 235.302 504.601 235.171C504.862 235.031 504.993 234.835 504.993 234.583C504.993 234.359 504.895 234.182 504.699 234.051C504.503 233.911 504.153 233.813 503.649 233.757L503.047 233.701C502.123 233.608 501.427 233.351 500.961 232.931C500.503 232.511 500.275 231.974 500.275 231.321C500.275 230.78 500.41 230.327 500.681 229.963C500.951 229.599 501.325 229.324 501.801 229.137C502.286 228.95 502.837 228.857 503.453 228.857C504.442 228.857 505.24 229.076 505.847 229.515C506.453 229.944 506.771 230.57 506.799 231.391H504.811C504.773 231.139 504.643 230.929 504.419 230.761C504.195 230.584 503.863 230.495 503.425 230.495C503.079 230.495 502.804 230.56 502.599 230.691C502.393 230.822 502.291 230.999 502.291 231.223C502.291 231.438 502.379 231.601 502.557 231.713C502.734 231.825 503.023 231.904 503.425 231.951L504.027 232.007C504.969 232.11 505.702 232.371 506.225 232.791C506.747 233.211 507.009 233.776 507.009 234.485C507.009 234.998 506.869 235.446 506.589 235.829C506.309 236.202 505.912 236.492 505.399 236.697C504.885 236.893 504.283 236.991 503.593 236.991ZM508.824 236.753V229.081H511.064V236.753H508.824ZM507.802 230.733V229.081H511.064V230.733H507.802ZM509.692 228.325C509.272 228.325 508.959 228.218 508.754 228.003C508.558 227.779 508.46 227.499 508.46 227.163C508.46 226.818 508.558 226.538 508.754 226.323C508.959 226.099 509.272 225.987 509.692 225.987C510.112 225.987 510.42 226.099 510.616 226.323C510.821 226.538 510.924 226.818 510.924 227.163C510.924 227.499 510.821 227.779 510.616 228.003C510.42 228.218 510.112 228.325 509.692 228.325ZM514.62 236.753L512.324 229.081H514.634L516.79 236.753H514.62ZM515.32 236.753V234.891H517.574V236.753H515.32ZM516.146 236.753L518.008 229.081H520.164L518.176 236.753H516.146ZM524.825 237.019C524.172 237.019 523.593 236.907 523.089 236.683C522.595 236.459 522.179 236.16 521.843 235.787C521.517 235.404 521.265 234.98 521.087 234.513C520.919 234.037 520.835 233.552 520.835 233.057V232.777C520.835 232.264 520.919 231.774 521.087 231.307C521.265 230.831 521.517 230.406 521.843 230.033C522.17 229.66 522.576 229.366 523.061 229.151C523.556 228.927 524.116 228.815 524.741 228.815C525.563 228.815 526.253 229.002 526.813 229.375C527.383 229.739 527.817 230.22 528.115 230.817C528.414 231.405 528.563 232.049 528.563 232.749V233.505H521.773V232.231H527.205L526.477 232.819C526.477 232.362 526.412 231.97 526.281 231.643C526.151 231.316 525.955 231.069 525.693 230.901C525.441 230.724 525.124 230.635 524.741 230.635C524.349 230.635 524.018 230.724 523.747 230.901C523.477 231.078 523.271 231.34 523.131 231.685C522.991 232.021 522.921 232.436 522.921 232.931C522.921 233.388 522.987 233.79 523.117 234.135C523.248 234.471 523.453 234.732 523.733 234.919C524.013 235.106 524.377 235.199 524.825 235.199C525.236 235.199 525.572 235.12 525.833 234.961C526.095 234.802 526.272 234.606 526.365 234.373H528.423C528.311 234.886 528.092 235.344 527.765 235.745C527.439 236.146 527.028 236.459 526.533 236.683C526.039 236.907 525.469 237.019 524.825 237.019ZM536.669 237.019C535.745 237.019 534.966 236.874 534.331 236.585C533.697 236.286 533.216 235.885 532.889 235.381C532.563 234.868 532.399 234.28 532.399 233.617H534.625C534.625 233.878 534.695 234.121 534.835 234.345C534.985 234.569 535.209 234.751 535.507 234.891C535.806 235.022 536.193 235.087 536.669 235.087C537.099 235.087 537.458 235.031 537.747 234.919C538.037 234.807 538.256 234.653 538.405 234.457C538.555 234.252 538.629 234.018 538.629 233.757C538.629 233.43 538.489 233.174 538.209 232.987C537.929 232.791 537.477 232.665 536.851 232.609L536.081 232.539C535.064 232.455 534.252 232.138 533.645 231.587C533.039 231.036 532.735 230.308 532.735 229.403C532.735 228.75 532.889 228.185 533.197 227.709C533.515 227.233 533.953 226.869 534.513 226.617C535.073 226.356 535.736 226.225 536.501 226.225C537.304 226.225 537.99 226.365 538.559 226.645C539.138 226.916 539.581 227.303 539.889 227.807C540.197 228.302 540.351 228.885 540.351 229.557H538.111C538.111 229.305 538.051 229.076 537.929 228.871C537.808 228.656 537.626 228.484 537.383 228.353C537.15 228.222 536.856 228.157 536.501 228.157C536.165 228.157 535.881 228.213 535.647 228.325C535.423 228.437 535.255 228.591 535.143 228.787C535.031 228.974 534.975 229.179 534.975 229.403C534.975 229.692 535.078 229.944 535.283 230.159C535.489 230.374 535.825 230.5 536.291 230.537L537.075 230.607C537.822 230.672 538.48 230.836 539.049 231.097C539.619 231.349 540.062 231.699 540.379 232.147C540.706 232.586 540.869 233.122 540.869 233.757C540.869 234.41 540.697 234.984 540.351 235.479C540.015 235.964 539.535 236.342 538.909 236.613C538.284 236.884 537.537 237.019 536.669 237.019ZM545.839 237.019C545.186 237.019 544.607 236.907 544.103 236.683C543.608 236.459 543.193 236.16 542.857 235.787C542.53 235.404 542.278 234.98 542.101 234.513C541.933 234.037 541.849 233.552 541.849 233.057V232.777C541.849 232.264 541.933 231.774 542.101 231.307C542.278 230.831 542.53 230.406 542.857 230.033C543.184 229.66 543.59 229.366 544.075 229.151C544.57 228.927 545.13 228.815 545.755 228.815C546.576 228.815 547.267 229.002 547.827 229.375C548.396 229.739 548.83 230.22 549.129 230.817C549.428 231.405 549.577 232.049 549.577 232.749V233.505H542.787V232.231H548.219L547.491 232.819C547.491 232.362 547.426 231.97 547.295 231.643C547.164 231.316 546.968 231.069 546.707 230.901C546.455 230.724 546.138 230.635 545.755 230.635C545.363 230.635 545.032 230.724 544.761 230.901C544.49 231.078 544.285 231.34 544.145 231.685C544.005 232.021 543.935 232.436 543.935 232.931C543.935 233.388 544 233.79 544.131 234.135C544.262 234.471 544.467 234.732 544.747 234.919C545.027 235.106 545.391 235.199 545.839 235.199C546.25 235.199 546.586 235.12 546.847 234.961C547.108 234.802 547.286 234.606 547.379 234.373H549.437C549.325 234.886 549.106 235.344 548.779 235.745C548.452 236.146 548.042 236.459 547.547 236.683C547.052 236.907 546.483 237.019 545.839 237.019ZM551.061 236.753V229.081H552.839V232.371H552.797C552.797 231.288 553.026 230.453 553.483 229.865C553.95 229.277 554.622 228.983 555.499 228.983H555.793V230.915H555.233C554.617 230.915 554.141 231.083 553.805 231.419C553.469 231.746 553.301 232.222 553.301 232.847V236.753H551.061ZM558.67 236.753L556.374 229.081H558.684L560.84 236.753H558.67ZM559.37 236.753V234.891H561.624V236.753H559.37ZM560.196 236.753L562.058 229.081H564.214L562.226 236.753H560.196ZM565.904 236.753V229.081H568.144V236.753H565.904ZM564.882 230.733V229.081H568.144V230.733H564.882ZM566.772 228.325C566.352 228.325 566.039 228.218 565.834 228.003C565.638 227.779 565.54 227.499 565.54 227.163C565.54 226.818 565.638 226.538 565.834 226.323C566.039 226.099 566.352 225.987 566.772 225.987C567.192 225.987 567.5 226.099 567.696 226.323C567.901 226.538 568.004 226.818 568.004 227.163C568.004 227.499 567.901 227.779 567.696 228.003C567.5 228.218 567.192 228.325 566.772 228.325ZM573.66 237.019C572.997 237.019 572.418 236.912 571.924 236.697C571.438 236.473 571.032 236.174 570.706 235.801C570.379 235.428 570.136 235.008 569.978 234.541C569.819 234.065 569.74 233.575 569.74 233.071V232.805C569.74 232.282 569.824 231.783 569.992 231.307C570.16 230.822 570.407 230.392 570.734 230.019C571.06 229.646 571.466 229.352 571.952 229.137C572.446 228.922 573.011 228.815 573.646 228.815C574.336 228.815 574.948 228.95 575.48 229.221C576.012 229.482 576.436 229.851 576.754 230.327C577.071 230.803 577.248 231.349 577.286 231.965H575.088C575.05 231.62 574.91 231.33 574.668 231.097C574.434 230.854 574.094 230.733 573.646 230.733C573.272 230.733 572.96 230.826 572.708 231.013C572.465 231.2 572.283 231.456 572.162 231.783C572.04 232.11 571.98 232.497 571.98 232.945C571.98 233.356 572.036 233.729 572.148 234.065C572.26 234.392 572.437 234.648 572.68 234.835C572.932 235.012 573.258 235.101 573.66 235.101C573.958 235.101 574.21 235.05 574.416 234.947C574.63 234.835 574.798 234.686 574.92 234.499C575.05 234.303 575.13 234.079 575.158 233.827H577.342C577.314 234.462 577.136 235.022 576.81 235.507C576.483 235.983 576.049 236.356 575.508 236.627C574.966 236.888 574.35 237.019 573.66 237.019ZM582.288 237.019C581.635 237.019 581.056 236.907 580.552 236.683C580.058 236.459 579.642 236.16 579.306 235.787C578.98 235.404 578.728 234.98 578.55 234.513C578.382 234.037 578.298 233.552 578.298 233.057V232.777C578.298 232.264 578.382 231.774 578.55 231.307C578.728 230.831 578.98 230.406 579.306 230.033C579.633 229.66 580.039 229.366 580.524 229.151C581.019 228.927 581.579 228.815 582.204 228.815C583.026 228.815 583.716 229.002 584.276 229.375C584.846 229.739 585.28 230.22 585.578 230.817C585.877 231.405 586.026 232.049 586.026 232.749V233.505H579.236V232.231H584.668L583.94 232.819C583.94 232.362 583.875 231.97 583.744 231.643C583.614 231.316 583.418 231.069 583.156 230.901C582.904 230.724 582.587 230.635 582.204 230.635C581.812 230.635 581.481 230.724 581.21 230.901C580.94 231.078 580.734 231.34 580.594 231.685C580.454 232.021 580.384 232.436 580.384 232.931C580.384 233.388 580.45 233.79 580.58 234.135C580.711 234.471 580.916 234.732 581.196 234.919C581.476 235.106 581.84 235.199 582.288 235.199C582.699 235.199 583.035 235.12 583.296 234.961C583.558 234.802 583.735 234.606 583.828 234.373H585.886C585.774 234.886 585.555 235.344 585.228 235.745C584.902 236.146 584.491 236.459 583.996 236.683C583.502 236.907 582.932 237.019 582.288 237.019ZM590.423 236.991C589.331 236.991 588.477 236.767 587.861 236.319C587.245 235.871 586.918 235.241 586.881 234.429H588.869C588.906 234.672 589.051 234.891 589.303 235.087C589.564 235.274 589.951 235.367 590.465 235.367C590.857 235.367 591.179 235.302 591.431 235.171C591.692 235.031 591.823 234.835 591.823 234.583C591.823 234.359 591.725 234.182 591.529 234.051C591.333 233.911 590.983 233.813 590.479 233.757L589.877 233.701C588.953 233.608 588.257 233.351 587.791 232.931C587.333 232.511 587.105 231.974 587.105 231.321C587.105 230.78 587.24 230.327 587.511 229.963C587.781 229.599 588.155 229.324 588.631 229.137C589.116 228.95 589.667 228.857 590.283 228.857C591.272 228.857 592.07 229.076 592.677 229.515C593.283 229.944 593.601 230.57 593.629 231.391H591.641C591.603 231.139 591.473 230.929 591.249 230.761C591.025 230.584 590.693 230.495 590.255 230.495C589.909 230.495 589.634 230.56 589.429 230.691C589.223 230.822 589.121 230.999 589.121 231.223C589.121 231.438 589.209 231.601 589.387 231.713C589.564 231.825 589.853 231.904 590.255 231.951L590.857 232.007C591.799 232.11 592.532 232.371 593.055 232.791C593.577 233.211 593.839 233.776 593.839 234.485C593.839 234.998 593.699 235.446 593.419 235.829C593.139 236.202 592.742 236.492 592.229 236.697C591.715 236.893 591.113 236.991 590.423 236.991Z" fill="#18181B"/>
<path d="M610.999 231.753C616.499 231.753 664.624 231.753 687.999 231.753" stroke="#8C26FF"/>
<rect x="688.499" y="204.253" width="55" height="55" rx="27.5" fill="#0171C9"/>
<rect x="688.499" y="204.253" width="55" height="55" rx="27.5" stroke="black"/>
<path d="M728.374 238.503C727.587 238.503 726.799 238.84 726.237 239.29L720.387 235.803C720.387 235.578 720.499 235.353 720.499 235.128C720.499 234.903 720.499 234.678 720.387 234.453L726.237 230.965C726.799 231.415 727.587 231.753 728.374 231.753C730.287 231.753 731.749 230.29 731.749 228.378C731.749 226.465 730.287 225.003 728.374 225.003C726.462 225.003 724.999 226.465 724.999 228.378C724.999 228.603 724.999 228.828 725.112 229.053L719.262 232.54C718.699 232.09 717.912 231.753 717.124 231.753C715.212 231.753 713.749 233.215 713.749 235.128C713.749 237.04 715.212 238.503 717.124 238.503C717.912 238.503 718.699 238.165 719.262 237.715L725.112 241.203C725.112 241.428 724.999 241.653 724.999 241.878C724.999 243.79 726.462 245.253 728.374 245.253C730.287 245.253 731.749 243.79 731.749 241.878C731.749 239.965 730.287 238.503 728.374 238.503ZM728.374 227.253C729.049 227.253 729.499 227.703 729.499 228.378C729.499 229.053 729.049 229.503 728.374 229.503C727.699 229.503 727.249 229.053 727.249 228.378C727.249 227.703 727.699 227.253 728.374 227.253ZM717.124 236.253C716.449 236.253 715.999 235.803 715.999 235.128C715.999 234.453 716.449 234.003 717.124 234.003C717.799 234.003 718.249 234.453 718.249 235.128C718.249 235.803 717.799 236.253 717.124 236.253ZM728.374 243.003C727.699 243.003 727.249 242.553 727.249 241.878C727.249 241.203 727.699 240.753 728.374 240.753C729.049 240.753 729.499 241.203 729.499 241.878C729.499 242.553 729.049 243.003 728.374 243.003Z" fill="white"/>
<path d="M719.374 241.878H707.562C704.187 241.878 701.374 239.065 701.374 235.69C701.374 232.653 703.512 230.178 706.437 229.615L707.899 229.39L708.237 227.928C709.137 223.54 712.849 220.503 717.124 220.503C717.687 220.503 718.249 220.503 718.812 220.615C720.612 220.953 722.187 221.853 723.537 223.09L725.112 221.515C723.537 219.94 721.512 218.815 719.262 218.478C718.587 218.365 717.799 218.253 717.124 218.253C711.837 218.253 707.112 221.965 706.099 227.365C702.049 228.153 699.124 231.64 699.124 235.69C699.124 240.303 702.837 244.128 707.562 244.128H719.374V241.878Z" fill="white"/>
<path d="M504 262.253C504 265.539 504 294.289 504 308.253" stroke="#8C26FF"/>
<rect x="143.5" y="311.253" width="55" height="55" rx="27.5" fill="#0171C9"/>
<rect x="143.5" y="311.253" width="55" height="55" rx="27.5" stroke="black"/>
<path d="M176.625 352.253C177.868 352.253 178.875 351.246 178.875 350.003C178.875 348.76 177.868 347.753 176.625 347.753C175.382 347.753 174.375 348.76 174.375 350.003C174.375 351.246 175.382 352.253 176.625 352.253Z" fill="white"/>
<path d="M176.625 329.753C177.868 329.753 178.875 328.746 178.875 327.503C178.875 326.26 177.868 325.253 176.625 325.253C175.382 325.253 174.375 326.26 174.375 327.503C174.375 328.746 175.382 329.753 176.625 329.753Z" fill="white"/>
<path d="M157.5 341.003C158.743 341.003 159.75 339.996 159.75 338.753C159.75 337.51 158.743 336.503 157.5 336.503C156.257 336.503 155.25 337.51 155.25 338.753C155.25 339.996 156.257 341.003 157.5 341.003Z" fill="white"/>
<path d="M184.5 334.253C183.505 334.256 182.539 334.589 181.754 335.2C180.968 335.81 180.408 336.664 180.16 337.628H175.34C175.181 336.993 174.884 336.402 174.471 335.895C174.057 335.388 173.537 334.978 172.948 334.694C172.359 334.411 171.714 334.26 171.06 334.253C170.406 334.246 169.758 334.383 169.163 334.655L165.589 330.188C166.177 329.416 166.497 328.473 166.5 327.503C166.5 326.613 166.236 325.743 165.742 325.003C165.247 324.263 164.544 323.686 163.722 323.345C162.9 323.005 161.995 322.916 161.122 323.089C160.249 323.263 159.447 323.692 158.818 324.321C158.189 324.95 157.76 325.752 157.586 326.625C157.413 327.498 157.502 328.403 157.843 329.225C158.183 330.047 158.76 330.75 159.5 331.245C160.24 331.739 161.11 332.003 162 332.003C162.634 332.001 163.261 331.865 163.838 331.601L167.411 336.068C166.821 336.838 166.501 337.782 166.501 338.753C166.501 339.724 166.821 340.668 167.411 341.438L163.838 345.905C163.261 345.641 162.634 345.504 162 345.503C161.11 345.503 160.24 345.767 159.5 346.261C158.76 346.756 158.183 347.459 157.843 348.281C157.502 349.103 157.413 350.008 157.586 350.881C157.76 351.754 158.189 352.556 158.818 353.185C159.447 353.814 160.249 354.243 161.122 354.416C161.995 354.59 162.9 354.501 163.722 354.16C164.544 353.82 165.247 353.243 165.742 352.503C166.236 351.763 166.5 350.893 166.5 350.003C166.497 349.032 166.177 348.09 165.589 347.318L169.162 342.851C169.757 343.123 170.405 343.26 171.059 343.253C171.713 343.246 172.358 343.096 172.948 342.812C173.537 342.528 174.057 342.118 174.471 341.611C174.884 341.104 175.181 340.513 175.34 339.878H180.16C180.372 340.691 180.807 341.428 181.417 342.006C182.027 342.584 182.786 342.979 183.609 343.147C184.432 343.314 185.286 343.248 186.073 342.955C186.861 342.662 187.55 342.154 188.063 341.489C188.576 340.824 188.893 340.029 188.976 339.193C189.06 338.357 188.908 337.514 188.537 336.761C188.166 336.007 187.591 335.373 186.877 334.929C186.164 334.486 185.34 334.252 184.5 334.253ZM159.75 327.503C159.75 327.058 159.882 326.623 160.129 326.253C160.376 325.883 160.728 325.594 161.139 325.424C161.55 325.254 162.002 325.209 162.439 325.296C162.875 325.383 163.276 325.597 163.591 325.912C163.906 326.227 164.12 326.628 164.207 327.064C164.294 327.5 164.249 327.953 164.079 328.364C163.908 328.775 163.62 329.127 163.25 329.374C162.88 329.621 162.445 329.753 162 329.753C161.403 329.752 160.831 329.515 160.41 329.093C159.988 328.671 159.751 328.099 159.75 327.503ZM162 352.253C161.555 352.253 161.12 352.121 160.75 351.874C160.38 351.627 160.092 351.275 159.921 350.864C159.751 350.453 159.706 350 159.793 349.564C159.88 349.128 160.094 348.727 160.409 348.412C160.724 348.097 161.125 347.883 161.561 347.796C161.998 347.709 162.45 347.754 162.861 347.924C163.272 348.094 163.624 348.383 163.871 348.753C164.118 349.123 164.25 349.558 164.25 350.003C164.249 350.599 164.012 351.171 163.59 351.593C163.169 352.015 162.597 352.252 162 352.253ZM171 341.003C170.555 341.003 170.12 340.871 169.75 340.624C169.38 340.377 169.092 340.025 168.921 339.614C168.751 339.203 168.706 338.75 168.793 338.314C168.88 337.878 169.094 337.477 169.409 337.162C169.724 336.847 170.125 336.633 170.561 336.546C170.998 336.459 171.45 336.504 171.861 336.674C172.272 336.844 172.624 337.133 172.871 337.503C173.118 337.873 173.25 338.308 173.25 338.753C173.249 339.349 173.012 339.921 172.59 340.343C172.169 340.765 171.597 341.002 171 341.003ZM184.5 341.003C184.055 341.003 183.62 340.871 183.25 340.624C182.88 340.377 182.592 340.025 182.421 339.614C182.251 339.203 182.206 338.75 182.293 338.314C182.38 337.878 182.594 337.477 182.909 337.162C183.224 336.847 183.625 336.633 184.061 336.546C184.498 336.459 184.95 336.504 185.361 336.674C185.772 336.844 186.124 337.133 186.371 337.503C186.618 337.873 186.75 338.308 186.75 338.753C186.749 339.349 186.512 339.921 186.09 340.343C185.669 340.765 185.097 341.002 184.5 341.003Z" fill="white"/>
<path d="M199 338.753C213.143 338.753 336.893 338.753 397 338.753" stroke="#8C26FF"/>
<rect x="397.5" y="308.753" width="213" height="60" rx="3.5" stroke="url(#paint1_radial_348_530)"/>
<path d="M445.429 343.753V333.449H447.725V343.753H445.429ZM451.631 343.753L448.635 339.357H451.155L454.291 343.753H451.631ZM447.109 340.477V338.671H449.629C449.965 338.671 450.255 338.606 450.497 338.475C450.749 338.335 450.941 338.144 451.071 337.901C451.211 337.649 451.281 337.36 451.281 337.033C451.281 336.706 451.211 336.422 451.071 336.179C450.941 335.927 450.749 335.736 450.497 335.605C450.255 335.465 449.965 335.395 449.629 335.395H447.109V333.449H449.447C450.297 333.449 451.034 333.58 451.659 333.841C452.285 334.093 452.765 334.471 453.101 334.975C453.437 335.479 453.605 336.114 453.605 336.879V337.103C453.605 337.859 453.433 338.489 453.087 338.993C452.751 339.488 452.271 339.861 451.645 340.113C451.029 340.356 450.297 340.477 449.447 340.477H447.109ZM459.131 344.019C458.459 344.019 457.862 343.916 457.339 343.711C456.816 343.496 456.373 343.207 456.009 342.843C455.654 342.479 455.384 342.064 455.197 341.597C455.01 341.121 454.917 340.622 454.917 340.099V339.777C454.917 339.245 455.01 338.741 455.197 338.265C455.393 337.78 455.673 337.355 456.037 336.991C456.41 336.627 456.858 336.342 457.381 336.137C457.904 335.922 458.487 335.815 459.131 335.815C459.794 335.815 460.382 335.922 460.895 336.137C461.418 336.342 461.861 336.627 462.225 336.991C462.589 337.355 462.869 337.78 463.065 338.265C463.261 338.741 463.359 339.245 463.359 339.777V340.099C463.359 340.622 463.266 341.121 463.079 341.597C462.892 342.064 462.617 342.479 462.253 342.843C461.898 343.207 461.46 343.496 460.937 343.711C460.414 343.916 459.812 344.019 459.131 344.019ZM459.131 342.129C459.57 342.129 459.934 342.036 460.223 341.849C460.512 341.662 460.732 341.401 460.881 341.065C461.04 340.729 461.119 340.356 461.119 339.945C461.119 339.506 461.04 339.124 460.881 338.797C460.722 338.461 460.494 338.195 460.195 337.999C459.906 337.803 459.551 337.705 459.131 337.705C458.72 337.705 458.366 337.803 458.067 337.999C457.768 338.195 457.54 338.461 457.381 338.797C457.232 339.124 457.157 339.506 457.157 339.945C457.157 340.356 457.232 340.729 457.381 341.065C457.53 341.401 457.754 341.662 458.053 341.849C458.352 342.036 458.711 342.129 459.131 342.129ZM469.64 344.005C469.015 344.005 468.464 343.874 467.988 343.613C467.512 343.342 467.139 342.955 466.868 342.451C466.598 341.947 466.453 341.331 466.434 340.603H466.7V343.753H464.922V333.533H467.162V338.727L466.63 339.399C466.658 338.624 466.803 337.976 467.064 337.453C467.335 336.921 467.704 336.524 468.17 336.263C468.637 335.992 469.169 335.857 469.766 335.857C470.289 335.857 470.76 335.955 471.18 336.151C471.61 336.338 471.974 336.608 472.272 336.963C472.571 337.308 472.8 337.719 472.958 338.195C473.126 338.671 473.21 339.189 473.21 339.749V340.057C473.21 340.617 473.126 341.135 472.958 341.611C472.8 342.087 472.562 342.507 472.244 342.871C471.936 343.226 471.563 343.506 471.124 343.711C470.686 343.907 470.191 344.005 469.64 344.005ZM469.052 342.129C469.435 342.129 469.766 342.036 470.046 341.849C470.336 341.662 470.56 341.401 470.718 341.065C470.877 340.72 470.956 340.332 470.956 339.903C470.956 339.464 470.877 339.082 470.718 338.755C470.56 338.428 470.336 338.176 470.046 337.999C469.766 337.812 469.435 337.719 469.052 337.719C468.716 337.719 468.399 337.798 468.1 337.957C467.802 338.116 467.559 338.344 467.372 338.643C467.195 338.932 467.106 339.287 467.106 339.707V340.225C467.106 340.626 467.2 340.972 467.386 341.261C467.582 341.541 467.83 341.756 468.128 341.905C468.427 342.054 468.735 342.129 469.052 342.129ZM477.356 343.991C476.469 343.991 475.788 343.706 475.312 343.137C474.836 342.558 474.598 341.69 474.598 340.533V336.081H476.838V340.645C476.838 341.056 476.955 341.382 477.188 341.625C477.421 341.868 477.734 341.989 478.126 341.989C478.527 341.989 478.854 341.863 479.106 341.611C479.358 341.359 479.484 341.018 479.484 340.589V336.081H481.724V343.753H479.946V340.519H480.1C480.1 341.294 479.997 341.942 479.792 342.465C479.596 342.978 479.302 343.361 478.91 343.613C478.518 343.865 478.033 343.991 477.454 343.991H477.356ZM486.702 343.991C485.61 343.991 484.756 343.767 484.14 343.319C483.524 342.871 483.197 342.241 483.16 341.429H485.148C485.185 341.672 485.33 341.891 485.582 342.087C485.843 342.274 486.23 342.367 486.744 342.367C487.136 342.367 487.458 342.302 487.71 342.171C487.971 342.031 488.102 341.835 488.102 341.583C488.102 341.359 488.004 341.182 487.808 341.051C487.612 340.911 487.262 340.813 486.758 340.757L486.156 340.701C485.232 340.608 484.536 340.351 484.07 339.931C483.612 339.511 483.384 338.974 483.384 338.321C483.384 337.78 483.519 337.327 483.79 336.963C484.06 336.599 484.434 336.324 484.91 336.137C485.395 335.95 485.946 335.857 486.562 335.857C487.551 335.857 488.349 336.076 488.956 336.515C489.562 336.944 489.88 337.57 489.908 338.391H487.92C487.882 338.139 487.752 337.929 487.528 337.761C487.304 337.584 486.972 337.495 486.534 337.495C486.188 337.495 485.913 337.56 485.708 337.691C485.502 337.822 485.4 337.999 485.4 338.223C485.4 338.438 485.488 338.601 485.666 338.713C485.843 338.825 486.132 338.904 486.534 338.951L487.136 339.007C488.078 339.11 488.811 339.371 489.334 339.791C489.856 340.211 490.118 340.776 490.118 341.485C490.118 341.998 489.978 342.446 489.698 342.829C489.418 343.202 489.021 343.492 488.508 343.697C487.994 343.893 487.392 343.991 486.702 343.991ZM495.055 343.851C494.28 343.851 493.655 343.758 493.179 343.571C492.703 343.375 492.353 343.053 492.129 342.605C491.914 342.148 491.807 341.532 491.807 340.757V334.009H493.893V340.841C493.893 341.205 493.986 341.485 494.173 341.681C494.369 341.868 494.644 341.961 494.999 341.961H496.133V343.851H495.055ZM490.645 337.719V336.081H496.133V337.719H490.645ZM500.705 343.753V333.533H504.471L508.321 341.891H508.797L508.517 342.143V333.533H510.673V343.753H506.879L503.029 335.395H502.553L502.833 335.143V343.753H500.705ZM516.356 344.019C515.703 344.019 515.124 343.907 514.62 343.683C514.126 343.459 513.71 343.16 513.374 342.787C513.048 342.404 512.796 341.98 512.618 341.513C512.45 341.037 512.366 340.552 512.366 340.057V339.777C512.366 339.264 512.45 338.774 512.618 338.307C512.796 337.831 513.048 337.406 513.374 337.033C513.701 336.66 514.107 336.366 514.592 336.151C515.087 335.927 515.647 335.815 516.272 335.815C517.094 335.815 517.784 336.002 518.344 336.375C518.914 336.739 519.348 337.22 519.646 337.817C519.945 338.405 520.094 339.049 520.094 339.749V340.505H513.304V339.231H518.736L518.008 339.819C518.008 339.362 517.943 338.97 517.812 338.643C517.682 338.316 517.486 338.069 517.224 337.901C516.972 337.724 516.655 337.635 516.272 337.635C515.88 337.635 515.549 337.724 515.278 337.901C515.008 338.078 514.802 338.34 514.662 338.685C514.522 339.021 514.452 339.436 514.452 339.931C514.452 340.388 514.518 340.79 514.648 341.135C514.779 341.471 514.984 341.732 515.264 341.919C515.544 342.106 515.908 342.199 516.356 342.199C516.767 342.199 517.103 342.12 517.364 341.961C517.626 341.802 517.803 341.606 517.896 341.373H519.954C519.842 341.886 519.623 342.344 519.296 342.745C518.97 343.146 518.559 343.459 518.064 343.683C517.57 343.907 517 344.019 516.356 344.019ZM525.065 343.851C524.29 343.851 523.665 343.758 523.189 343.571C522.713 343.375 522.363 343.053 522.139 342.605C521.924 342.148 521.817 341.532 521.817 340.757V334.009H523.903V340.841C523.903 341.205 523.996 341.485 524.183 341.681C524.379 341.868 524.654 341.961 525.009 341.961H526.143V343.851H525.065ZM520.655 337.719V336.081H526.143V337.719H520.655ZM530.463 343.753L531.863 336.333H534.313L535.937 343.753H534.201L532.535 336.389H533.529L532.031 343.753H530.463ZM529.931 343.753L529.917 341.891H531.457L531.471 343.753H529.931ZM528.923 343.753L526.865 336.081H529.063L530.981 343.753H528.923ZM534.775 343.753L534.789 341.891H536.329V343.753H534.775ZM535.405 343.753L537.113 336.081H539.171L537.323 343.753H535.405ZM544.115 344.019C543.443 344.019 542.846 343.916 542.323 343.711C541.801 343.496 541.357 343.207 540.993 342.843C540.639 342.479 540.368 342.064 540.181 341.597C539.995 341.121 539.901 340.622 539.901 340.099V339.777C539.901 339.245 539.995 338.741 540.181 338.265C540.377 337.78 540.657 337.355 541.021 336.991C541.395 336.627 541.843 336.342 542.365 336.137C542.888 335.922 543.471 335.815 544.115 335.815C544.778 335.815 545.366 335.922 545.879 336.137C546.402 336.342 546.845 336.627 547.209 336.991C547.573 337.355 547.853 337.78 548.049 338.265C548.245 338.741 548.343 339.245 548.343 339.777V340.099C548.343 340.622 548.25 341.121 548.063 341.597C547.877 342.064 547.601 342.479 547.237 342.843C546.883 343.207 546.444 343.496 545.921 343.711C545.399 343.916 544.797 344.019 544.115 344.019ZM544.115 342.129C544.554 342.129 544.918 342.036 545.207 341.849C545.497 341.662 545.716 341.401 545.865 341.065C546.024 340.729 546.103 340.356 546.103 339.945C546.103 339.506 546.024 339.124 545.865 338.797C545.707 338.461 545.478 338.195 545.179 337.999C544.89 337.803 544.535 337.705 544.115 337.705C543.705 337.705 543.35 337.803 543.051 337.999C542.753 338.195 542.524 338.461 542.365 338.797C542.216 339.124 542.141 339.506 542.141 339.945C542.141 340.356 542.216 340.729 542.365 341.065C542.515 341.401 542.739 341.662 543.037 341.849C543.336 342.036 543.695 342.129 544.115 342.129ZM549.907 343.753V336.081H551.685V339.371H551.643C551.643 338.288 551.871 337.453 552.329 336.865C552.795 336.277 553.467 335.983 554.345 335.983H554.639V337.915H554.079C553.463 337.915 552.987 338.083 552.651 338.419C552.315 338.746 552.147 339.222 552.147 339.847V343.753H549.907ZM561.203 343.753L558.781 340.169H557.703L560.825 336.081H563.177L560.237 339.889L560.265 338.797L563.723 343.753H561.203ZM555.799 343.753V333.533H558.039V343.753H555.799Z" fill="#18181B"/>
<path d="M611 338.753C625.143 338.753 748.893 338.753 809 338.753" stroke="#8C26FF"/>
<rect x="809.5" y="311.253" width="55" height="55" rx="27.5" fill="#8C26FF"/>
<rect x="809.5" y="311.253" width="55" height="55" rx="27.5" stroke="black"/>
<path d="M831.375 333.128V340.404C831.378 341.469 831.681 342.511 832.251 343.411C832.82 344.311 833.632 345.031 834.594 345.489L837 346.628L839.406 345.488C840.368 345.03 841.18 344.31 841.749 343.41C842.319 342.51 842.622 341.468 842.625 340.403V333.128H831.375ZM840.375 340.404C840.373 341.043 840.191 341.668 839.849 342.207C839.507 342.747 839.02 343.179 838.443 343.453L837 344.138L835.557 343.455C834.98 343.181 834.492 342.749 834.151 342.209C833.809 341.669 833.627 341.043 833.625 340.404V335.378H840.375V340.404Z" fill="white"/>
<path d="M853.216 340.344C853.638 339.922 853.875 339.35 853.875 338.753C853.875 338.156 853.638 337.584 853.216 337.162L846.705 330.652L849.968 327.432C850.449 327.552 850.956 327.51 851.411 327.312C851.866 327.114 852.242 326.771 852.483 326.337C852.723 325.903 852.813 325.402 852.739 324.912C852.666 324.421 852.432 323.969 852.075 323.625C851.718 323.281 851.257 323.064 850.765 323.008C850.272 322.953 849.774 323.061 849.35 323.317C848.925 323.573 848.596 323.962 848.415 324.424C848.234 324.886 848.21 325.394 848.348 325.871L845.115 329.061L838.591 322.536C838.169 322.114 837.597 321.877 837 321.877C836.403 321.877 835.831 322.114 835.409 322.536L828.899 329.049L825.679 325.784C825.798 325.303 825.755 324.795 825.557 324.341C825.358 323.887 825.015 323.51 824.581 323.271C824.147 323.031 823.646 322.942 823.156 323.016C822.665 323.09 822.213 323.324 821.87 323.681C821.526 324.039 821.31 324.5 821.255 324.992C821.199 325.485 821.309 325.982 821.565 326.407C821.821 326.831 822.21 327.159 822.672 327.34C823.134 327.521 823.642 327.544 824.119 327.406L827.308 330.638L820.783 337.162C820.361 337.584 820.124 338.156 820.124 338.753C820.124 339.35 820.361 339.922 820.783 340.344L827.308 346.868L824.119 350.1C823.643 349.963 823.136 349.987 822.676 350.167C822.215 350.348 821.827 350.675 821.572 351.099C821.316 351.523 821.208 352.019 821.263 352.51C821.318 353.002 821.534 353.461 821.877 353.818C822.22 354.174 822.67 354.408 823.16 354.482C823.649 354.556 824.148 354.467 824.582 354.228C825.015 353.989 825.357 353.614 825.556 353.161C825.754 352.708 825.797 352.202 825.679 351.722L828.899 348.459L835.409 354.969C835.831 355.391 836.403 355.627 837 355.627C837.597 355.627 838.169 355.391 838.591 354.969L845.116 348.445L848.347 351.635C848.21 352.111 848.234 352.618 848.414 353.078C848.595 353.539 848.922 353.927 849.346 354.182C849.77 354.438 850.266 354.546 850.757 354.491C851.249 354.436 851.708 354.22 852.065 353.877C852.421 353.535 852.655 353.084 852.729 352.595C852.803 352.105 852.714 351.606 852.475 351.172C852.236 350.739 851.861 350.397 851.408 350.198C850.955 350 850.449 349.957 849.969 350.075L846.706 346.854L853.216 340.344ZM837 353.378L822.375 338.753L837 324.128L851.625 338.753L837 353.378Z" fill="white"/>
<path d="M504 369.253C504 372.539 504 401.289 504 415.253" stroke="#8C26FF"/>
<rect x="397.5" y="415.753" width="213" height="60" rx="3.5" stroke="url(#paint2_radial_348_530)"/>
<path d="M442.093 450.753V440.533H444.389V450.753H442.093ZM444.109 446.637V444.733H448.057V446.637H444.109ZM444.109 442.437V440.533H448.225V442.437H444.109ZM454.135 450.753V448.485H453.757V446.021C453.757 445.629 453.663 445.335 453.477 445.139C453.29 444.943 452.991 444.845 452.581 444.845C452.375 444.845 452.105 444.85 451.769 444.859C451.433 444.868 451.087 444.882 450.733 444.901C450.378 444.92 450.056 444.938 449.767 444.957V443.067C449.981 443.048 450.233 443.03 450.523 443.011C450.812 442.992 451.111 442.978 451.419 442.969C451.727 442.96 452.016 442.955 452.287 442.955C453.071 442.955 453.729 443.067 454.261 443.291C454.802 443.515 455.213 443.856 455.493 444.313C455.773 444.761 455.913 445.34 455.913 446.049V450.753H454.135ZM451.685 450.949C451.134 450.949 450.649 450.851 450.229 450.655C449.818 450.459 449.496 450.179 449.263 449.815C449.029 449.442 448.913 448.998 448.913 448.485C448.913 447.925 449.057 447.468 449.347 447.113C449.636 446.749 450.042 446.483 450.565 446.315C451.087 446.138 451.689 446.049 452.371 446.049H454.009V447.295H452.357C451.965 447.295 451.661 447.393 451.447 447.589C451.241 447.776 451.139 448.032 451.139 448.359C451.139 448.667 451.241 448.919 451.447 449.115C451.661 449.302 451.965 449.395 452.357 449.395C452.609 449.395 452.833 449.353 453.029 449.269C453.234 449.176 453.402 449.022 453.533 448.807C453.663 448.592 453.738 448.294 453.757 447.911L454.289 448.471C454.242 449.003 454.111 449.451 453.897 449.815C453.691 450.179 453.402 450.459 453.029 450.655C452.665 450.851 452.217 450.949 451.685 450.949ZM460.725 450.991C459.633 450.991 458.779 450.767 458.163 450.319C457.547 449.871 457.22 449.241 457.183 448.429H459.171C459.208 448.672 459.353 448.891 459.605 449.087C459.866 449.274 460.254 449.367 460.767 449.367C461.159 449.367 461.481 449.302 461.733 449.171C461.994 449.031 462.125 448.835 462.125 448.583C462.125 448.359 462.027 448.182 461.831 448.051C461.635 447.911 461.285 447.813 460.781 447.757L460.179 447.701C459.255 447.608 458.56 447.351 458.093 446.931C457.636 446.511 457.407 445.974 457.407 445.321C457.407 444.78 457.542 444.327 457.813 443.963C458.084 443.599 458.457 443.324 458.933 443.137C459.418 442.95 459.969 442.857 460.585 442.857C461.574 442.857 462.372 443.076 462.979 443.515C463.586 443.944 463.903 444.57 463.931 445.391H461.943C461.906 445.139 461.775 444.929 461.551 444.761C461.327 444.584 460.996 444.495 460.557 444.495C460.212 444.495 459.936 444.56 459.731 444.691C459.526 444.822 459.423 444.999 459.423 445.223C459.423 445.438 459.512 445.601 459.689 445.713C459.866 445.825 460.156 445.904 460.557 445.951L461.159 446.007C462.102 446.11 462.834 446.371 463.357 446.791C463.88 447.211 464.141 447.776 464.141 448.485C464.141 448.998 464.001 449.446 463.721 449.829C463.441 450.202 463.044 450.492 462.531 450.697C462.018 450.893 461.416 450.991 460.725 450.991ZM469.078 450.851C468.304 450.851 467.678 450.758 467.202 450.571C466.726 450.375 466.376 450.053 466.152 449.605C465.938 449.148 465.83 448.532 465.83 447.757V441.009H467.916V447.841C467.916 448.205 468.01 448.485 468.196 448.681C468.392 448.868 468.668 448.961 469.022 448.961H470.156V450.851H469.078ZM464.668 444.719V443.081H470.156V444.719H464.668ZM479.418 451.019C478.494 451.019 477.701 450.86 477.038 450.543C476.375 450.216 475.834 449.792 475.414 449.269C474.994 448.737 474.681 448.168 474.476 447.561C474.28 446.945 474.182 446.348 474.182 445.769V445.461C474.182 444.826 474.285 444.201 474.49 443.585C474.695 442.96 475.008 442.395 475.428 441.891C475.857 441.387 476.394 440.986 477.038 440.687C477.691 440.379 478.461 440.225 479.348 440.225C480.272 440.225 481.089 440.398 481.798 440.743C482.507 441.088 483.072 441.569 483.492 442.185C483.921 442.792 484.173 443.506 484.248 444.327H481.938C481.873 443.916 481.723 443.566 481.49 443.277C481.257 442.988 480.953 442.764 480.58 442.605C480.216 442.446 479.805 442.367 479.348 442.367C478.891 442.367 478.485 442.446 478.13 442.605C477.775 442.764 477.477 442.988 477.234 443.277C477.001 443.566 476.819 443.912 476.688 444.313C476.567 444.705 476.506 445.144 476.506 445.629C476.506 446.105 476.567 446.544 476.688 446.945C476.819 447.337 477.005 447.682 477.248 447.981C477.5 448.27 477.808 448.494 478.172 448.653C478.536 448.802 478.951 448.877 479.418 448.877C480.127 448.877 480.725 448.704 481.21 448.359C481.705 448.014 482.003 447.538 482.106 446.931H484.402C484.318 447.678 484.066 448.364 483.646 448.989C483.235 449.605 482.671 450.1 481.952 450.473C481.243 450.837 480.398 451.019 479.418 451.019ZM489.537 451.019C488.865 451.019 488.268 450.916 487.745 450.711C487.223 450.496 486.779 450.207 486.415 449.843C486.061 449.479 485.79 449.064 485.603 448.597C485.417 448.121 485.323 447.622 485.323 447.099V446.777C485.323 446.245 485.417 445.741 485.603 445.265C485.799 444.78 486.079 444.355 486.443 443.991C486.817 443.627 487.265 443.342 487.787 443.137C488.31 442.922 488.893 442.815 489.537 442.815C490.2 442.815 490.788 442.922 491.301 443.137C491.824 443.342 492.267 443.627 492.631 443.991C492.995 444.355 493.275 444.78 493.471 445.265C493.667 445.741 493.765 446.245 493.765 446.777V447.099C493.765 447.622 493.672 448.121 493.485 448.597C493.299 449.064 493.023 449.479 492.659 449.843C492.305 450.207 491.866 450.496 491.343 450.711C490.821 450.916 490.219 451.019 489.537 451.019ZM489.537 449.129C489.976 449.129 490.34 449.036 490.629 448.849C490.919 448.662 491.138 448.401 491.287 448.065C491.446 447.729 491.525 447.356 491.525 446.945C491.525 446.506 491.446 446.124 491.287 445.797C491.129 445.461 490.9 445.195 490.601 444.999C490.312 444.803 489.957 444.705 489.537 444.705C489.127 444.705 488.772 444.803 488.473 444.999C488.175 445.195 487.946 445.461 487.787 445.797C487.638 446.124 487.563 446.506 487.563 446.945C487.563 447.356 487.638 447.729 487.787 448.065C487.937 448.401 488.161 448.662 488.459 448.849C488.758 449.036 489.117 449.129 489.537 449.129ZM495.329 450.753V443.081H497.107V446.371H496.981C496.981 445.587 497.079 444.934 497.275 444.411C497.48 443.888 497.788 443.496 498.199 443.235C498.609 442.974 499.109 442.843 499.697 442.843H499.795C500.691 442.843 501.372 443.137 501.839 443.725C502.315 444.304 502.553 445.186 502.553 446.371V450.753H500.313V446.245C500.313 445.834 500.191 445.498 499.949 445.237C499.706 444.976 499.379 444.845 498.969 444.845C498.549 444.845 498.208 444.98 497.947 445.251C497.695 445.512 497.569 445.858 497.569 446.287V450.753H495.329ZM504.461 450.753V443.081H506.239V446.371H506.113C506.113 445.587 506.211 444.934 506.407 444.411C506.613 443.888 506.921 443.496 507.331 443.235C507.742 442.974 508.241 442.843 508.829 442.843H508.927C509.823 442.843 510.505 443.137 510.971 443.725C511.447 444.304 511.685 445.186 511.685 446.371V450.753H509.445V446.245C509.445 445.834 509.324 445.498 509.081 445.237C508.839 444.976 508.512 444.845 508.101 444.845C507.681 444.845 507.341 444.98 507.079 445.251C506.827 445.512 506.701 445.858 506.701 446.287V450.753H504.461ZM517.108 451.019C516.455 451.019 515.876 450.907 515.372 450.683C514.878 450.459 514.462 450.16 514.126 449.787C513.8 449.404 513.548 448.98 513.37 448.513C513.202 448.037 513.118 447.552 513.118 447.057V446.777C513.118 446.264 513.202 445.774 513.37 445.307C513.548 444.831 513.8 444.406 514.126 444.033C514.453 443.66 514.859 443.366 515.344 443.151C515.839 442.927 516.399 442.815 517.024 442.815C517.846 442.815 518.536 443.002 519.096 443.375C519.666 443.739 520.1 444.22 520.398 444.817C520.697 445.405 520.846 446.049 520.846 446.749V447.505H514.056V446.231H519.488L518.76 446.819C518.76 446.362 518.695 445.97 518.564 445.643C518.434 445.316 518.238 445.069 517.976 444.901C517.724 444.724 517.407 444.635 517.024 444.635C516.632 444.635 516.301 444.724 516.03 444.901C515.76 445.078 515.554 445.34 515.414 445.685C515.274 446.021 515.204 446.436 515.204 446.931C515.204 447.388 515.27 447.79 515.4 448.135C515.531 448.471 515.736 448.732 516.016 448.919C516.296 449.106 516.66 449.199 517.108 449.199C517.519 449.199 517.855 449.12 518.116 448.961C518.378 448.802 518.555 448.606 518.648 448.373H520.706C520.594 448.886 520.375 449.344 520.048 449.745C519.722 450.146 519.311 450.459 518.816 450.683C518.322 450.907 517.752 451.019 517.108 451.019ZM525.775 451.019C525.112 451.019 524.533 450.912 524.039 450.697C523.553 450.473 523.147 450.174 522.821 449.801C522.494 449.428 522.251 449.008 522.093 448.541C521.934 448.065 521.855 447.575 521.855 447.071V446.805C521.855 446.282 521.939 445.783 522.107 445.307C522.275 444.822 522.522 444.392 522.849 444.019C523.175 443.646 523.581 443.352 524.067 443.137C524.561 442.922 525.126 442.815 525.761 442.815C526.451 442.815 527.063 442.95 527.595 443.221C528.127 443.482 528.551 443.851 528.869 444.327C529.186 444.803 529.363 445.349 529.401 445.965H527.203C527.165 445.62 527.025 445.33 526.783 445.097C526.549 444.854 526.209 444.733 525.761 444.733C525.387 444.733 525.075 444.826 524.823 445.013C524.58 445.2 524.398 445.456 524.277 445.783C524.155 446.11 524.095 446.497 524.095 446.945C524.095 447.356 524.151 447.729 524.263 448.065C524.375 448.392 524.552 448.648 524.795 448.835C525.047 449.012 525.373 449.101 525.775 449.101C526.073 449.101 526.325 449.05 526.531 448.947C526.745 448.835 526.913 448.686 527.035 448.499C527.165 448.303 527.245 448.079 527.273 447.827H529.457C529.429 448.462 529.251 449.022 528.925 449.507C528.598 449.983 528.164 450.356 527.623 450.627C527.081 450.888 526.465 451.019 525.775 451.019ZM534.375 450.851C533.601 450.851 532.975 450.758 532.499 450.571C532.023 450.375 531.673 450.053 531.449 449.605C531.235 449.148 531.127 448.532 531.127 447.757V441.009H533.213V447.841C533.213 448.205 533.307 448.485 533.493 448.681C533.689 448.868 533.965 448.961 534.319 448.961H535.453V450.851H534.375ZM529.965 444.719V443.081H535.453V444.719H529.965ZM537.324 450.753V443.081H539.564V450.753H537.324ZM536.302 444.733V443.081H539.564V444.733H536.302ZM538.192 442.325C537.772 442.325 537.459 442.218 537.254 442.003C537.058 441.779 536.96 441.499 536.96 441.163C536.96 440.818 537.058 440.538 537.254 440.323C537.459 440.099 537.772 439.987 538.192 439.987C538.612 439.987 538.92 440.099 539.116 440.323C539.321 440.538 539.424 440.818 539.424 441.163C539.424 441.499 539.321 441.779 539.116 442.003C538.92 442.218 538.612 442.325 538.192 442.325ZM545.373 451.019C544.701 451.019 544.104 450.916 543.581 450.711C543.059 450.496 542.615 450.207 542.251 449.843C541.897 449.479 541.626 449.064 541.439 448.597C541.253 448.121 541.159 447.622 541.159 447.099V446.777C541.159 446.245 541.253 445.741 541.439 445.265C541.635 444.78 541.915 444.355 542.279 443.991C542.653 443.627 543.101 443.342 543.623 443.137C544.146 442.922 544.729 442.815 545.373 442.815C546.036 442.815 546.624 442.922 547.137 443.137C547.66 443.342 548.103 443.627 548.467 443.991C548.831 444.355 549.111 444.78 549.307 445.265C549.503 445.741 549.601 446.245 549.601 446.777V447.099C549.601 447.622 549.508 448.121 549.321 448.597C549.135 449.064 548.859 449.479 548.495 449.843C548.141 450.207 547.702 450.496 547.179 450.711C546.657 450.916 546.055 451.019 545.373 451.019ZM545.373 449.129C545.812 449.129 546.176 449.036 546.465 448.849C546.755 448.662 546.974 448.401 547.123 448.065C547.282 447.729 547.361 447.356 547.361 446.945C547.361 446.506 547.282 446.124 547.123 445.797C546.965 445.461 546.736 445.195 546.437 444.999C546.148 444.803 545.793 444.705 545.373 444.705C544.963 444.705 544.608 444.803 544.309 444.999C544.011 445.195 543.782 445.461 543.623 445.797C543.474 446.124 543.399 446.506 543.399 446.945C543.399 447.356 543.474 447.729 543.623 448.065C543.773 448.401 543.997 448.662 544.295 448.849C544.594 449.036 544.953 449.129 545.373 449.129ZM551.165 450.753V443.081H552.943V446.371H552.817C552.817 445.587 552.915 444.934 553.111 444.411C553.316 443.888 553.624 443.496 554.035 443.235C554.445 442.974 554.945 442.843 555.533 442.843H555.631C556.527 442.843 557.208 443.137 557.675 443.725C558.151 444.304 558.389 445.186 558.389 446.371V450.753H556.149V446.245C556.149 445.834 556.027 445.498 555.785 445.237C555.542 444.976 555.215 444.845 554.805 444.845C554.385 444.845 554.044 444.98 553.783 445.251C553.531 445.512 553.405 445.858 553.405 446.287V450.753H551.165ZM563.209 450.991C562.117 450.991 561.263 450.767 560.647 450.319C560.031 449.871 559.705 449.241 559.667 448.429H561.655C561.693 448.672 561.837 448.891 562.089 449.087C562.351 449.274 562.738 449.367 563.251 449.367C563.643 449.367 563.965 449.302 564.217 449.171C564.479 449.031 564.609 448.835 564.609 448.583C564.609 448.359 564.511 448.182 564.315 448.051C564.119 447.911 563.769 447.813 563.265 447.757L562.663 447.701C561.739 447.608 561.044 447.351 560.577 446.931C560.12 446.511 559.891 445.974 559.891 445.321C559.891 444.78 560.027 444.327 560.297 443.963C560.568 443.599 560.941 443.324 561.417 443.137C561.903 442.95 562.453 442.857 563.069 442.857C564.059 442.857 564.857 443.076 565.463 443.515C566.07 443.944 566.387 444.57 566.415 445.391H564.427C564.39 445.139 564.259 444.929 564.035 444.761C563.811 444.584 563.48 444.495 563.041 444.495C562.696 444.495 562.421 444.56 562.215 444.691C562.01 444.822 561.907 444.999 561.907 445.223C561.907 445.438 561.996 445.601 562.173 445.713C562.351 445.825 562.64 445.904 563.041 445.951L563.643 446.007C564.586 446.11 565.319 446.371 565.841 446.791C566.364 447.211 566.625 447.776 566.625 448.485C566.625 448.998 566.485 449.446 566.205 449.829C565.925 450.202 565.529 450.492 565.015 450.697C564.502 450.893 563.9 450.991 563.209 450.991Z" fill="#18181B"/>
<path d="M504 476.253C504 477.896 504 492.271 504 499.253" stroke="black"/>
<rect x="349.5" y="499.753" width="55" height="55" rx="27.5" fill="#8C26FF"/>
<rect x="349.5" y="499.753" width="55" height="55" rx="27.5" stroke="black"/>
<path d="M368.045 527.298L371.045 532.503L367.25 537.273L362 528.183L368.045 527.298ZM384.5 536.253V532.188C385.82 531.603 386.75 530.298 386.75 528.753C386.75 527.898 386.45 527.103 385.955 526.503L388.91 524.778C390.425 523.893 390.95 521.958 390.065 520.443L387.995 516.843C387.573 516.115 386.88 515.584 386.068 515.365C385.256 515.146 384.391 515.257 383.66 515.673L371.465 522.753C370.04 523.548 369.545 525.378 370.37 526.818L372.62 530.718C373.445 532.143 375.29 532.638 376.715 531.813L379.535 530.193C379.91 531.078 380.615 531.798 381.5 532.188V536.253C381.5 537.903 382.85 539.253 384.5 539.253H392V536.253H384.5Z" fill="white"/>
<path d="M405 527.253C419.143 527.253 542.893 527.253 603 527.253" stroke="#9747FF"/>
<rect x="603.5" y="499.753" width="55" height="55" rx="27.5" fill="#0171C9"/>
<rect x="603.5" y="499.753" width="55" height="55" rx="27.5" stroke="black"/>
<g clip-path="url(#clip0_348_530)">
<path d="M631 543.684C632.688 543.684 634.36 543.352 635.92 542.706C637.48 542.06 638.897 541.113 640.091 539.919C641.285 538.725 642.232 537.307 642.878 535.747C643.525 534.188 643.857 532.516 643.857 530.827V523.679C643.857 520.52 642.695 517.472 640.591 515.116M618.143 526.533V530.827C618.142 533.358 618.888 535.833 620.288 537.942C621.688 540.051 623.679 541.7 626.011 542.682M637.429 512.544C634.476 510.84 630.966 510.377 627.673 511.26C624.379 512.142 621.571 514.297 619.866 517.25C619.164 518.463 618.668 519.784 618.4 521.159" stroke="white" stroke-width="2" stroke-linecap="round" stroke-linejoin="round"/>
<path d="M629.663 518.279C630.609 518.082 631.586 518.101 632.524 518.333C633.462 518.564 634.335 519.004 635.081 519.618C635.826 520.233 636.424 521.007 636.83 521.883C637.237 522.759 637.441 523.716 637.429 524.682V528.822M635.783 534.222C634.908 535.196 633.756 535.88 632.482 536.182C631.207 536.484 629.871 536.39 628.652 535.912C627.433 535.434 626.389 534.594 625.659 533.506C624.93 532.419 624.551 531.134 624.571 529.824V524.682C624.567 523.798 624.742 522.923 625.086 522.11M631 524.964V529.259" stroke="white" stroke-width="2" stroke-linecap="round" stroke-linejoin="round"/>
</g>
<path d="M503.999 586.912V479.912" stroke="#9747FF"/>
<rect x="377.5" y="587.753" width="253" height="60" rx="3.5" stroke="url(#paint3_radial_348_530)"/>
<path d="M387.445 622.753L390.819 612.533H394.529L398.029 622.753H395.649L392.821 614.115L393.549 614.409H391.743L392.499 614.115L389.741 622.753H387.445ZM390.007 620.219L390.707 618.315H394.711L395.425 620.219H390.007ZM402.277 623.005C401.735 623.005 401.241 622.907 400.793 622.711C400.354 622.515 399.971 622.244 399.645 621.899C399.318 621.544 399.066 621.129 398.889 620.653C398.721 620.177 398.637 619.664 398.637 619.113V618.791C398.637 618.24 398.716 617.727 398.875 617.251C399.043 616.775 399.281 616.36 399.589 616.005C399.906 615.641 400.284 615.361 400.723 615.165C401.161 614.96 401.651 614.857 402.193 614.857C402.809 614.857 403.341 614.992 403.789 615.263C404.237 615.524 404.587 615.916 404.839 616.439C405.091 616.952 405.231 617.587 405.259 618.343L404.671 617.797V612.533H406.925V622.753H405.147V619.575H405.455C405.427 620.303 405.273 620.924 404.993 621.437C404.722 621.95 404.353 622.342 403.887 622.613C403.42 622.874 402.883 623.005 402.277 623.005ZM402.837 621.129C403.182 621.129 403.495 621.054 403.775 620.905C404.064 620.746 404.293 620.518 404.461 620.219C404.638 619.92 404.727 619.561 404.727 619.141V618.623C404.727 618.212 404.638 617.867 404.461 617.587C404.283 617.307 404.05 617.092 403.761 616.943C403.471 616.794 403.159 616.719 402.823 616.719C402.449 616.719 402.113 616.817 401.815 617.013C401.525 617.2 401.297 617.461 401.129 617.797C400.961 618.124 400.877 618.506 400.877 618.945C400.877 619.393 400.961 619.78 401.129 620.107C401.297 620.434 401.53 620.686 401.829 620.863C402.127 621.04 402.463 621.129 402.837 621.129ZM410.441 622.753L408.145 615.081H410.455L412.611 622.753H410.441ZM411.141 622.753V620.891H413.395V622.753H411.141ZM411.967 622.753L413.829 615.081H415.985L413.997 622.753H411.967ZM421.835 622.753V620.485H421.457V618.021C421.457 617.629 421.363 617.335 421.177 617.139C420.99 616.943 420.691 616.845 420.281 616.845C420.075 616.845 419.805 616.85 419.469 616.859C419.133 616.868 418.787 616.882 418.433 616.901C418.078 616.92 417.756 616.938 417.467 616.957V615.067C417.681 615.048 417.933 615.03 418.223 615.011C418.512 614.992 418.811 614.978 419.119 614.969C419.427 614.96 419.716 614.955 419.987 614.955C420.771 614.955 421.429 615.067 421.961 615.291C422.502 615.515 422.913 615.856 423.193 616.313C423.473 616.761 423.613 617.34 423.613 618.049V622.753H421.835ZM419.385 622.949C418.834 622.949 418.349 622.851 417.929 622.655C417.518 622.459 417.196 622.179 416.963 621.815C416.729 621.442 416.613 620.998 416.613 620.485C416.613 619.925 416.757 619.468 417.047 619.113C417.336 618.749 417.742 618.483 418.265 618.315C418.787 618.138 419.389 618.049 420.071 618.049H421.709V619.295H420.057C419.665 619.295 419.361 619.393 419.147 619.589C418.941 619.776 418.839 620.032 418.839 620.359C418.839 620.667 418.941 620.919 419.147 621.115C419.361 621.302 419.665 621.395 420.057 621.395C420.309 621.395 420.533 621.353 420.729 621.269C420.934 621.176 421.102 621.022 421.233 620.807C421.363 620.592 421.438 620.294 421.457 619.911L421.989 620.471C421.942 621.003 421.811 621.451 421.597 621.815C421.391 622.179 421.102 622.459 420.729 622.655C420.365 622.851 419.917 622.949 419.385 622.949ZM425.513 622.753V615.081H427.291V618.371H427.165C427.165 617.587 427.263 616.934 427.459 616.411C427.665 615.888 427.973 615.496 428.383 615.235C428.794 614.974 429.293 614.843 429.881 614.843H429.979C430.875 614.843 431.557 615.137 432.023 615.725C432.499 616.304 432.737 617.186 432.737 618.371V622.753H430.497V618.245C430.497 617.834 430.376 617.498 430.133 617.237C429.891 616.976 429.564 616.845 429.153 616.845C428.733 616.845 428.393 616.98 428.131 617.251C427.879 617.512 427.753 617.858 427.753 618.287V622.753H425.513ZM438.09 623.019C437.427 623.019 436.849 622.912 436.354 622.697C435.869 622.473 435.463 622.174 435.136 621.801C434.809 621.428 434.567 621.008 434.408 620.541C434.249 620.065 434.17 619.575 434.17 619.071V618.805C434.17 618.282 434.254 617.783 434.422 617.307C434.59 616.822 434.837 616.392 435.164 616.019C435.491 615.646 435.897 615.352 436.382 615.137C436.877 614.922 437.441 614.815 438.076 614.815C438.767 614.815 439.378 614.95 439.91 615.221C440.442 615.482 440.867 615.851 441.184 616.327C441.501 616.803 441.679 617.349 441.716 617.965H439.518C439.481 617.62 439.341 617.33 439.098 617.097C438.865 616.854 438.524 616.733 438.076 616.733C437.703 616.733 437.39 616.826 437.138 617.013C436.895 617.2 436.713 617.456 436.592 617.783C436.471 618.11 436.41 618.497 436.41 618.945C436.41 619.356 436.466 619.729 436.578 620.065C436.69 620.392 436.867 620.648 437.11 620.835C437.362 621.012 437.689 621.101 438.09 621.101C438.389 621.101 438.641 621.05 438.846 620.947C439.061 620.835 439.229 620.686 439.35 620.499C439.481 620.303 439.56 620.079 439.588 619.827H441.772C441.744 620.462 441.567 621.022 441.24 621.507C440.913 621.983 440.479 622.356 439.938 622.627C439.397 622.888 438.781 623.019 438.09 623.019ZM446.719 623.019C446.065 623.019 445.487 622.907 444.983 622.683C444.488 622.459 444.073 622.16 443.737 621.787C443.41 621.404 443.158 620.98 442.981 620.513C442.813 620.037 442.729 619.552 442.729 619.057V618.777C442.729 618.264 442.813 617.774 442.981 617.307C443.158 616.831 443.41 616.406 443.737 616.033C444.063 615.66 444.469 615.366 444.955 615.151C445.449 614.927 446.009 614.815 446.635 614.815C447.456 614.815 448.147 615.002 448.707 615.375C449.276 615.739 449.71 616.22 450.009 616.817C450.307 617.405 450.457 618.049 450.457 618.749V619.505H443.667V618.231H449.099L448.371 618.819C448.371 618.362 448.305 617.97 448.175 617.643C448.044 617.316 447.848 617.069 447.587 616.901C447.335 616.724 447.017 616.635 446.635 616.635C446.243 616.635 445.911 616.724 445.641 616.901C445.37 617.078 445.165 617.34 445.025 617.685C444.885 618.021 444.815 618.436 444.815 618.931C444.815 619.388 444.88 619.79 445.011 620.135C445.141 620.471 445.347 620.732 445.627 620.919C445.907 621.106 446.271 621.199 446.719 621.199C447.129 621.199 447.465 621.12 447.727 620.961C447.988 620.802 448.165 620.606 448.259 620.373H450.317C450.205 620.886 449.985 621.344 449.659 621.745C449.332 622.146 448.921 622.459 448.427 622.683C447.932 622.907 447.363 623.019 446.719 623.019ZM458.562 623.019C457.638 623.019 456.859 622.874 456.224 622.585C455.59 622.286 455.109 621.885 454.782 621.381C454.456 620.868 454.292 620.28 454.292 619.617H456.518C456.518 619.878 456.588 620.121 456.728 620.345C456.878 620.569 457.102 620.751 457.4 620.891C457.699 621.022 458.086 621.087 458.562 621.087C458.992 621.087 459.351 621.031 459.64 620.919C459.93 620.807 460.149 620.653 460.298 620.457C460.448 620.252 460.522 620.018 460.522 619.757C460.522 619.43 460.382 619.174 460.102 618.987C459.822 618.791 459.37 618.665 458.744 618.609L457.974 618.539C456.957 618.455 456.145 618.138 455.538 617.587C454.932 617.036 454.628 616.308 454.628 615.403C454.628 614.75 454.782 614.185 455.09 613.709C455.408 613.233 455.846 612.869 456.406 612.617C456.966 612.356 457.629 612.225 458.394 612.225C459.197 612.225 459.883 612.365 460.452 612.645C461.031 612.916 461.474 613.303 461.782 613.807C462.09 614.302 462.244 614.885 462.244 615.557H460.004C460.004 615.305 459.944 615.076 459.822 614.871C459.701 614.656 459.519 614.484 459.276 614.353C459.043 614.222 458.749 614.157 458.394 614.157C458.058 614.157 457.774 614.213 457.54 614.325C457.316 614.437 457.148 614.591 457.036 614.787C456.924 614.974 456.868 615.179 456.868 615.403C456.868 615.692 456.971 615.944 457.176 616.159C457.382 616.374 457.718 616.5 458.184 616.537L458.968 616.607C459.715 616.672 460.373 616.836 460.942 617.097C461.512 617.349 461.955 617.699 462.272 618.147C462.599 618.586 462.762 619.122 462.762 619.757C462.762 620.41 462.59 620.984 462.244 621.479C461.908 621.964 461.428 622.342 460.802 622.613C460.177 622.884 459.43 623.019 458.562 623.019ZM467.732 623.019C467.079 623.019 466.5 622.907 465.996 622.683C465.502 622.459 465.086 622.16 464.75 621.787C464.424 621.404 464.172 620.98 463.994 620.513C463.826 620.037 463.742 619.552 463.742 619.057V618.777C463.742 618.264 463.826 617.774 463.994 617.307C464.172 616.831 464.424 616.406 464.75 616.033C465.077 615.66 465.483 615.366 465.968 615.151C466.463 614.927 467.023 614.815 467.648 614.815C468.47 614.815 469.16 615.002 469.72 615.375C470.29 615.739 470.724 616.22 471.022 616.817C471.321 617.405 471.47 618.049 471.47 618.749V619.505H464.68V618.231H470.112L469.384 618.819C469.384 618.362 469.319 617.97 469.188 617.643C469.058 617.316 468.862 617.069 468.6 616.901C468.348 616.724 468.031 616.635 467.648 616.635C467.256 616.635 466.925 616.724 466.654 616.901C466.384 617.078 466.178 617.34 466.038 617.685C465.898 618.021 465.828 618.436 465.828 618.931C465.828 619.388 465.894 619.79 466.024 620.135C466.155 620.471 466.36 620.732 466.64 620.919C466.92 621.106 467.284 621.199 467.732 621.199C468.143 621.199 468.479 621.12 468.74 620.961C469.002 620.802 469.179 620.606 469.272 620.373H471.33C471.218 620.886 470.999 621.344 470.672 621.745C470.346 622.146 469.935 622.459 469.44 622.683C468.946 622.907 468.376 623.019 467.732 623.019ZM476.399 623.019C475.736 623.019 475.157 622.912 474.663 622.697C474.177 622.473 473.771 622.174 473.445 621.801C473.118 621.428 472.875 621.008 472.717 620.541C472.558 620.065 472.479 619.575 472.479 619.071V618.805C472.479 618.282 472.563 617.783 472.731 617.307C472.899 616.822 473.146 616.392 473.473 616.019C473.799 615.646 474.205 615.352 474.691 615.137C475.185 614.922 475.75 614.815 476.385 614.815C477.075 614.815 477.687 614.95 478.219 615.221C478.751 615.482 479.175 615.851 479.493 616.327C479.81 616.803 479.987 617.349 480.025 617.965H477.827C477.789 617.62 477.649 617.33 477.407 617.097C477.173 616.854 476.833 616.733 476.385 616.733C476.011 616.733 475.699 616.826 475.447 617.013C475.204 617.2 475.022 617.456 474.901 617.783C474.779 618.11 474.719 618.497 474.719 618.945C474.719 619.356 474.775 619.729 474.887 620.065C474.999 620.392 475.176 620.648 475.419 620.835C475.671 621.012 475.997 621.101 476.399 621.101C476.697 621.101 476.949 621.05 477.155 620.947C477.369 620.835 477.537 620.686 477.659 620.499C477.789 620.303 477.869 620.079 477.897 619.827H480.081C480.053 620.462 479.875 621.022 479.549 621.507C479.222 621.983 478.788 622.356 478.247 622.627C477.705 622.888 477.089 623.019 476.399 623.019ZM484.103 622.991C483.217 622.991 482.535 622.706 482.059 622.137C481.583 621.558 481.345 620.69 481.345 619.533V615.081H483.585V619.645C483.585 620.056 483.702 620.382 483.935 620.625C484.169 620.868 484.481 620.989 484.873 620.989C485.275 620.989 485.601 620.863 485.853 620.611C486.105 620.359 486.231 620.018 486.231 619.589V615.081H488.471V622.753H486.693V619.519H486.847C486.847 620.294 486.745 620.942 486.539 621.465C486.343 621.978 486.049 622.361 485.657 622.613C485.265 622.865 484.78 622.991 484.201 622.991H484.103ZM490.537 622.753V615.081H492.315V618.371H492.273C492.273 617.288 492.501 616.453 492.959 615.865C493.425 615.277 494.097 614.983 494.975 614.983H495.269V616.915H494.709C494.093 616.915 493.617 617.083 493.281 617.419C492.945 617.746 492.777 618.222 492.777 618.847V622.753H490.537ZM496.793 622.753V615.081H499.033V622.753H496.793ZM495.771 616.733V615.081H499.033V616.733H495.771ZM497.661 614.325C497.241 614.325 496.929 614.218 496.723 614.003C496.527 613.779 496.429 613.499 496.429 613.163C496.429 612.818 496.527 612.538 496.723 612.323C496.929 612.099 497.241 611.987 497.661 611.987C498.081 611.987 498.389 612.099 498.585 612.323C498.791 612.538 498.893 612.818 498.893 613.163C498.893 613.499 498.791 613.779 498.585 614.003C498.389 614.218 498.081 614.325 497.661 614.325ZM504.591 622.851C503.816 622.851 503.191 622.758 502.715 622.571C502.239 622.375 501.889 622.053 501.665 621.605C501.45 621.148 501.343 620.532 501.343 619.757V613.009H503.429V619.841C503.429 620.205 503.522 620.485 503.709 620.681C503.905 620.868 504.18 620.961 504.535 620.961H505.669V622.851H504.591ZM500.181 616.719V615.081H505.669V616.719H500.181ZM507.091 625.791V623.887H508.687C508.93 623.887 509.135 623.854 509.303 623.789C509.471 623.733 509.607 623.635 509.709 623.495C509.812 623.355 509.896 623.164 509.961 622.921L511.851 615.081H513.979L511.837 623.369C511.688 623.966 511.478 624.442 511.207 624.797C510.946 625.152 510.591 625.404 510.143 625.553C509.705 625.712 509.145 625.791 508.463 625.791H507.091ZM509.499 622.585V620.835H511.123V622.585H509.499ZM508.575 622.585L506.223 615.081H508.477L510.703 622.585H508.575ZM520.689 622.991C519.802 622.991 519.121 622.706 518.645 622.137C518.169 621.558 517.931 620.69 517.931 619.533V615.081H520.171V619.645C520.171 620.056 520.288 620.382 520.521 620.625C520.754 620.868 521.067 620.989 521.459 620.989C521.86 620.989 522.187 620.863 522.439 620.611C522.691 620.359 522.817 620.018 522.817 619.589V615.081H525.057V622.753H523.279V619.519H523.433C523.433 620.294 523.33 620.942 523.125 621.465C522.929 621.978 522.635 622.361 522.243 622.613C521.851 622.865 521.366 622.991 520.787 622.991H520.689ZM530.035 622.991C528.943 622.991 528.089 622.767 527.473 622.319C526.857 621.871 526.53 621.241 526.493 620.429H528.481C528.518 620.672 528.663 620.891 528.915 621.087C529.176 621.274 529.563 621.367 530.077 621.367C530.469 621.367 530.791 621.302 531.043 621.171C531.304 621.031 531.435 620.835 531.435 620.583C531.435 620.359 531.337 620.182 531.141 620.051C530.945 619.911 530.595 619.813 530.091 619.757L529.489 619.701C528.565 619.608 527.869 619.351 527.403 618.931C526.945 618.511 526.717 617.974 526.717 617.321C526.717 616.78 526.852 616.327 527.123 615.963C527.393 615.599 527.767 615.324 528.243 615.137C528.728 614.95 529.279 614.857 529.895 614.857C530.884 614.857 531.682 615.076 532.289 615.515C532.895 615.944 533.213 616.57 533.241 617.391H531.253C531.215 617.139 531.085 616.929 530.861 616.761C530.637 616.584 530.305 616.495 529.867 616.495C529.521 616.495 529.246 616.56 529.041 616.691C528.835 616.822 528.733 616.999 528.733 617.223C528.733 617.438 528.821 617.601 528.999 617.713C529.176 617.825 529.465 617.904 529.867 617.951L530.469 618.007C531.411 618.11 532.144 618.371 532.667 618.791C533.189 619.211 533.451 619.776 533.451 620.485C533.451 620.998 533.311 621.446 533.031 621.829C532.751 622.202 532.354 622.492 531.841 622.697C531.327 622.893 530.725 622.991 530.035 622.991ZM535.266 622.753V615.081H537.506V622.753H535.266ZM534.244 616.733V615.081H537.506V616.733H534.244ZM536.134 614.325C535.714 614.325 535.401 614.218 535.196 614.003C535 613.779 534.902 613.499 534.902 613.163C534.902 612.818 535 612.538 535.196 612.323C535.401 612.099 535.714 611.987 536.134 611.987C536.554 611.987 536.862 612.099 537.058 612.323C537.263 612.538 537.366 612.818 537.366 613.163C537.366 613.499 537.263 613.779 537.058 614.003C536.862 614.218 536.554 614.325 536.134 614.325ZM539.578 622.753V615.081H541.356V618.371H541.23C541.23 617.587 541.328 616.934 541.524 616.411C541.729 615.888 542.037 615.496 542.448 615.235C542.858 614.974 543.358 614.843 543.946 614.843H544.044C544.94 614.843 545.621 615.137 546.088 615.725C546.564 616.304 546.802 617.186 546.802 618.371V622.753H544.562V618.245C544.562 617.834 544.44 617.498 544.198 617.237C543.955 616.976 543.628 616.845 543.218 616.845C542.798 616.845 542.457 616.98 542.196 617.251C541.944 617.512 541.818 617.858 541.818 618.287V622.753H539.578ZM551.734 625.805C551.361 625.805 550.978 625.791 550.586 625.763C550.194 625.735 549.835 625.698 549.508 625.651V623.761C549.835 623.808 550.194 623.845 550.586 623.873C550.988 623.91 551.352 623.929 551.678 623.929C552.285 623.929 552.775 623.859 553.148 623.719C553.531 623.579 553.811 623.364 553.988 623.075C554.166 622.795 554.254 622.431 554.254 621.983V620.457L554.66 619.561C554.642 620.242 554.506 620.826 554.254 621.311C554.012 621.796 553.671 622.17 553.232 622.431C552.794 622.683 552.271 622.809 551.664 622.809C551.142 622.809 550.666 622.716 550.236 622.529C549.816 622.333 549.457 622.062 549.158 621.717C548.86 621.372 548.631 620.97 548.472 620.513C548.314 620.046 548.234 619.542 548.234 619.001V618.679C548.234 618.138 548.318 617.634 548.486 617.167C548.654 616.7 548.897 616.294 549.214 615.949C549.532 615.604 549.91 615.338 550.348 615.151C550.787 614.955 551.272 614.857 551.804 614.857C552.42 614.857 552.952 614.992 553.4 615.263C553.858 615.534 554.217 615.93 554.478 616.453C554.74 616.976 554.88 617.606 554.898 618.343L554.59 618.427V615.081H556.368V621.843C556.368 622.786 556.2 623.546 555.864 624.125C555.528 624.704 555.015 625.128 554.324 625.399C553.643 625.67 552.78 625.805 551.734 625.805ZM552.364 620.919C552.71 620.919 553.022 620.844 553.302 620.695C553.582 620.536 553.802 620.312 553.96 620.023C554.128 619.734 554.212 619.384 554.212 618.973V618.567C554.212 618.166 554.124 617.83 553.946 617.559C553.778 617.279 553.554 617.069 553.274 616.929C552.994 616.78 552.696 616.705 552.378 616.705C552.005 616.705 551.674 616.794 551.384 616.971C551.095 617.148 550.871 617.396 550.712 617.713C550.554 618.03 550.474 618.404 550.474 618.833C550.474 619.272 550.554 619.65 550.712 619.967C550.88 620.275 551.104 620.513 551.384 620.681C551.674 620.84 552 620.919 552.364 620.919ZM563.334 622.823V621.031H565.728C566.157 621.031 566.479 620.919 566.694 620.695C566.908 620.471 567.016 620.154 567.016 619.743C567.016 619.332 566.908 619.02 566.694 618.805C566.479 618.581 566.157 618.469 565.728 618.469H563.334V617.083H565.616C566.325 617.083 566.955 617.172 567.506 617.349C568.056 617.517 568.49 617.792 568.808 618.175C569.125 618.558 569.284 619.076 569.284 619.729V619.925C569.284 620.532 569.144 621.054 568.864 621.493C568.584 621.922 568.173 622.254 567.632 622.487C567.09 622.711 566.418 622.823 565.616 622.823H563.334ZM561.374 622.823V612.449H563.614V622.823H561.374ZM563.334 618.105V616.733H565.35C565.788 616.733 566.106 616.621 566.302 616.397C566.498 616.173 566.596 615.874 566.596 615.501C566.596 615.109 566.498 614.801 566.302 614.577C566.106 614.353 565.788 614.241 565.35 614.241H563.334V612.449H565.21C566.386 612.449 567.286 612.696 567.912 613.191C568.546 613.686 568.864 614.39 568.864 615.305V615.515C568.864 616.15 568.7 616.658 568.374 617.041C568.056 617.424 567.622 617.699 567.072 617.867C566.53 618.026 565.91 618.105 565.21 618.105H563.334ZM571.305 622.753V615.081H573.545V622.753H571.305ZM570.283 616.733V615.081H573.545V616.733H570.283ZM572.173 614.325C571.753 614.325 571.44 614.218 571.235 614.003C571.039 613.779 570.941 613.499 570.941 613.163C570.941 612.818 571.039 612.538 571.235 612.323C571.44 612.099 571.753 611.987 572.173 611.987C572.593 611.987 572.901 612.099 573.097 612.323C573.302 612.538 573.405 612.818 573.405 613.163C573.405 613.499 573.302 613.779 573.097 614.003C572.901 614.218 572.593 614.325 572.173 614.325ZM578.641 625.805C578.267 625.805 577.885 625.791 577.493 625.763C577.101 625.735 576.741 625.698 576.415 625.651V623.761C576.741 623.808 577.101 623.845 577.493 623.873C577.894 623.91 578.258 623.929 578.585 623.929C579.191 623.929 579.681 623.859 580.055 623.719C580.437 623.579 580.717 623.364 580.895 623.075C581.072 622.795 581.161 622.431 581.161 621.983V620.457L581.567 619.561C581.548 620.242 581.413 620.826 581.161 621.311C580.918 621.796 580.577 622.17 580.139 622.431C579.7 622.683 579.177 622.809 578.571 622.809C578.048 622.809 577.572 622.716 577.143 622.529C576.723 622.333 576.363 622.062 576.065 621.717C575.766 621.372 575.537 620.97 575.379 620.513C575.22 620.046 575.141 619.542 575.141 619.001V618.679C575.141 618.138 575.225 617.634 575.393 617.167C575.561 616.7 575.803 616.294 576.121 615.949C576.438 615.604 576.816 615.338 577.255 615.151C577.693 614.955 578.179 614.857 578.711 614.857C579.327 614.857 579.859 614.992 580.307 615.263C580.764 615.534 581.123 615.93 581.385 616.453C581.646 616.976 581.786 617.606 581.805 618.343L581.497 618.427V615.081H583.275V621.843C583.275 622.786 583.107 623.546 582.771 624.125C582.435 624.704 581.921 625.128 581.231 625.399C580.549 625.67 579.686 625.805 578.641 625.805ZM579.271 620.919C579.616 620.919 579.929 620.844 580.209 620.695C580.489 620.536 580.708 620.312 580.867 620.023C581.035 619.734 581.119 619.384 581.119 618.973V618.567C581.119 618.166 581.03 617.83 580.853 617.559C580.685 617.279 580.461 617.069 580.181 616.929C579.901 616.78 579.602 616.705 579.285 616.705C578.911 616.705 578.58 616.794 578.291 616.971C578.001 617.148 577.777 617.396 577.619 617.713C577.46 618.03 577.381 618.404 577.381 618.833C577.381 619.272 577.46 619.65 577.619 619.967C577.787 620.275 578.011 620.513 578.291 620.681C578.58 620.84 578.907 620.919 579.271 620.919ZM590.296 622.809V620.667H592.2C592.676 620.667 593.105 620.597 593.488 620.457C593.871 620.308 594.197 620.102 594.468 619.841C594.739 619.57 594.944 619.248 595.084 618.875C595.224 618.492 595.294 618.072 595.294 617.615C595.294 617.139 595.224 616.714 595.084 616.341C594.944 615.968 594.739 615.65 594.468 615.389C594.197 615.128 593.871 614.932 593.488 614.801C593.105 614.661 592.676 614.591 592.2 614.591H590.296V612.449H592.074C592.998 612.449 593.805 612.584 594.496 612.855C595.187 613.126 595.765 613.494 596.232 613.961C596.699 614.428 597.044 614.964 597.268 615.571C597.501 616.168 597.618 616.798 597.618 617.461V617.769C597.618 618.385 597.501 618.996 597.268 619.603C597.044 620.2 596.699 620.742 596.232 621.227C595.765 621.703 595.187 622.086 594.496 622.375C593.805 622.664 592.998 622.809 592.074 622.809H590.296ZM588.28 622.809V612.449H590.576V622.809H588.28ZM603.725 622.753V620.485H603.347V618.021C603.347 617.629 603.254 617.335 603.067 617.139C602.881 616.943 602.582 616.845 602.171 616.845C601.966 616.845 601.695 616.85 601.359 616.859C601.023 616.868 600.678 616.882 600.323 616.901C599.969 616.92 599.647 616.938 599.357 616.957V615.067C599.572 615.048 599.824 615.03 600.113 615.011C600.403 614.992 600.701 614.978 601.009 614.969C601.317 614.96 601.607 614.955 601.877 614.955C602.661 614.955 603.319 615.067 603.851 615.291C604.393 615.515 604.803 615.856 605.083 616.313C605.363 616.761 605.503 617.34 605.503 618.049V622.753H603.725ZM601.275 622.949C600.725 622.949 600.239 622.851 599.819 622.655C599.409 622.459 599.087 622.179 598.853 621.815C598.62 621.442 598.503 620.998 598.503 620.485C598.503 619.925 598.648 619.468 598.937 619.113C599.227 618.749 599.633 618.483 600.155 618.315C600.678 618.138 601.28 618.049 601.961 618.049H603.599V619.295H601.947C601.555 619.295 601.252 619.393 601.037 619.589C600.832 619.776 600.729 620.032 600.729 620.359C600.729 620.667 600.832 620.919 601.037 621.115C601.252 621.302 601.555 621.395 601.947 621.395C602.199 621.395 602.423 621.353 602.619 621.269C602.825 621.176 602.993 621.022 603.123 620.807C603.254 620.592 603.329 620.294 603.347 619.911L603.879 620.471C603.833 621.003 603.702 621.451 603.487 621.815C603.282 622.179 602.993 622.459 602.619 622.655C602.255 622.851 601.807 622.949 601.275 622.949ZM610.89 622.851C610.115 622.851 609.49 622.758 609.014 622.571C608.538 622.375 608.188 622.053 607.964 621.605C607.749 621.148 607.642 620.532 607.642 619.757V613.009H609.728V619.841C609.728 620.205 609.821 620.485 610.008 620.681C610.204 620.868 610.479 620.961 610.834 620.961H611.968V622.851H610.89ZM606.48 616.719V615.081H611.968V616.719H606.48ZM618.081 622.753V620.485H617.703V618.021C617.703 617.629 617.609 617.335 617.423 617.139C617.236 616.943 616.937 616.845 616.527 616.845C616.321 616.845 616.051 616.85 615.715 616.859C615.379 616.868 615.033 616.882 614.679 616.901C614.324 616.92 614.002 616.938 613.713 616.957V615.067C613.927 615.048 614.179 615.03 614.469 615.011C614.758 614.992 615.057 614.978 615.365 614.969C615.673 614.96 615.962 614.955 616.233 614.955C617.017 614.955 617.675 615.067 618.207 615.291C618.748 615.515 619.159 615.856 619.439 616.313C619.719 616.761 619.859 617.34 619.859 618.049V622.753H618.081ZM615.631 622.949C615.08 622.949 614.595 622.851 614.175 622.655C613.764 622.459 613.442 622.179 613.209 621.815C612.975 621.442 612.859 620.998 612.859 620.485C612.859 619.925 613.003 619.468 613.293 619.113C613.582 618.749 613.988 618.483 614.511 618.315C615.033 618.138 615.635 618.049 616.317 618.049H617.955V619.295H616.303C615.911 619.295 615.607 619.393 615.393 619.589C615.187 619.776 615.085 620.032 615.085 620.359C615.085 620.667 615.187 620.919 615.393 621.115C615.607 621.302 615.911 621.395 616.303 621.395C616.555 621.395 616.779 621.353 616.975 621.269C617.18 621.176 617.348 621.022 617.479 620.807C617.609 620.592 617.684 620.294 617.703 619.911L618.235 620.471C618.188 621.003 618.057 621.451 617.843 621.815C617.637 622.179 617.348 622.459 616.975 622.655C616.611 622.851 616.163 622.949 615.631 622.949Z" fill="#18181B"/>
<path d="M918 358.351C888.821 152.931 729.687 2.93961 518.257 2.93962C306.826 2.93963 115.003 151.18 108 360.101" stroke="#0171C9"/>
<circle cx="173.862" cy="173.356" r="28.679" fill="white" stroke="#0171C9"/>
<circle cx="786.533" cy="103.611" r="28.679" fill="white" stroke="#0171C9"/>
<defs>
<radialGradient id="paint0_radial_348_530" cx="0" cy="0" r="1" gradientUnits="userSpaceOnUse" gradientTransform="translate(496.627 232.588) rotate(151.915) scale(139.663 645.861)">
<stop stop-color="#8C26FF"/>
<stop offset="0.625" stop-color="#0171C9"/>
<stop offset="0.82" stop-color="white" stop-opacity="0"/>
</radialGradient>
<radialGradient id="paint1_radial_348_530" cx="0" cy="0" r="1" gradientUnits="userSpaceOnUse" gradientTransform="translate(496.628 339.588) rotate(151.915) scale(139.663 645.861)">
<stop stop-color="#8C26FF"/>
<stop offset="0.625" stop-color="#0171C9"/>
<stop offset="0.82" stop-color="white" stop-opacity="0"/>
</radialGradient>
<radialGradient id="paint2_radial_348_530" cx="0" cy="0" r="1" gradientUnits="userSpaceOnUse" gradientTransform="translate(496.628 446.588) rotate(151.915) scale(139.663 645.861)">
<stop stop-color="#8C26FF"/>
<stop offset="0.625" stop-color="#0171C9"/>
<stop offset="0.82" stop-color="white" stop-opacity="0"/>
</radialGradient>
<radialGradient id="paint3_radial_348_530" cx="0" cy="0" r="1" gradientUnits="userSpaceOnUse" gradientTransform="translate(495.25 618.588) rotate(155.793) scale(160.35 667.687)">
<stop stop-color="#8C26FF"/>
<stop offset="0.625" stop-color="#0171C9"/>
<stop offset="0.82" stop-color="white" stop-opacity="0"/>
</radialGradient>
<clipPath id="clip0_348_530">
<rect width="36" height="36" fill="white" transform="translate(613 509.253)"/>
</clipPath>
</defs>
</svg>
