<svg width="23" height="24" viewBox="0 0 23 24" fill="none" xmlns="http://www.w3.org/2000/svg">
<path d="M13.5 24C13.2836 24 13.0731 23.9298 12.9 23.8L8.89998 20.8C8.77578 20.7069 8.67498 20.5861 8.60555 20.4472C8.53613 20.3084 8.49998 20.1552 8.49998 20V14.38L1.48398 6.487C0.985701 5.92488 0.66036 5.23082 0.547061 4.48823C0.433761 3.74565 0.537325 2.98615 0.845304 2.30101C1.15328 1.61588 1.65257 1.03426 2.28316 0.626066C2.91375 0.217873 3.64881 0.000474419 4.39998 0L18.6 0C19.3511 0.000881051 20.086 0.218639 20.7163 0.627107C21.3466 1.03557 21.8456 1.61737 22.1533 2.30259C22.4609 2.9878 22.5641 3.74727 22.4506 4.48975C22.337 5.23222 22.0114 5.9261 21.513 6.488L14.5 14.38V23C14.5 23.2652 14.3946 23.5196 14.2071 23.7071C14.0196 23.8946 13.7652 24 13.5 24ZM10.5 19.5L12.5 21V14C12.5002 13.7552 12.5902 13.5189 12.753 13.336L20.021 5.159C20.2633 4.88508 20.4215 4.54704 20.4764 4.18545C20.5314 3.82387 20.4808 3.4541 20.3307 3.12056C20.1807 2.78701 19.9376 2.50386 19.6306 2.30509C19.3236 2.10632 18.9657 2.00038 18.6 2H4.39998C4.03443 2.00055 3.6768 2.10655 3.36998 2.30527C3.06317 2.50399 2.82019 2.78699 2.67019 3.12035C2.52019 3.45371 2.46954 3.82326 2.52431 4.18468C2.57908 4.5461 2.73695 4.88405 2.97898 5.158L10.248 13.336C10.4104 13.519 10.5001 13.7553 10.5 14V19.5Z" fill="#888E9C"/>
</svg>
