<svg width="25" height="25" viewBox="0 0 25 25" fill="none" xmlns="http://www.w3.org/2000/svg">
<g clip-path="url(#clip0_1175_86)">
<path d="M23.5 11.4998H1.5C0.947715 11.4998 0.5 11.9475 0.5 12.4998C0.5 13.052 0.947715 13.4998 1.5 13.4998H23.5C24.0523 13.4998 24.5 13.052 24.5 12.4998C24.5 11.9475 24.0523 11.4998 23.5 11.4998Z" fill="#5C35CB"/>
<path d="M23.5 4.50024H1.5C0.947715 4.50024 0.5 4.94796 0.5 5.50024C0.5 6.05253 0.947715 6.50024 1.5 6.50024H23.5C24.0523 6.50024 24.5 6.05253 24.5 5.50024C24.5 4.94796 24.0523 4.50024 23.5 4.50024Z" fill="#5C35CB"/>
<path d="M23.5 18.5H1.5C0.947715 18.5 0.5 18.9477 0.5 19.5C0.5 20.0523 0.947715 20.5 1.5 20.5H23.5C24.0523 20.5 24.5 20.0523 24.5 19.5C24.5 18.9477 24.0523 18.5 23.5 18.5Z" fill="#5C35CB"/>
</g>
<defs>
<clipPath id="clip0_1175_86">
<rect width="24" height="24" fill="white" transform="translate(0.5 0.5)"/>
</clipPath>
</defs>
</svg>
