<svg width="21" height="21" viewBox="0 0 21 21" fill="none" xmlns="http://www.w3.org/2000/svg">
<path d="M11.528 0.490234C12.653 0.493234 13.224 0.499234 13.717 0.513234L13.911 0.520234C14.135 0.528234 14.356 0.538234 14.623 0.550234C15.687 0.600234 16.413 0.768234 17.05 1.01523C17.71 1.26923 18.266 1.61323 18.822 2.16823C19.3305 2.66813 19.724 3.27282 19.975 3.94023C20.222 4.57723 20.39 5.30323 20.44 6.36823C20.452 6.63423 20.462 6.85523 20.47 7.08023L20.476 7.27423C20.491 7.76623 20.497 8.33723 20.499 9.46223L20.5 10.2082V11.5182C20.5025 12.2476 20.4948 12.977 20.477 13.7062L20.471 13.9002C20.463 14.1252 20.453 14.3462 20.441 14.6122C20.391 15.6772 20.221 16.4022 19.975 17.0402C19.7247 17.708 19.3312 18.3129 18.822 18.8122C18.322 19.3206 17.7173 19.714 17.05 19.9652C16.413 20.2122 15.687 20.3802 14.623 20.4302C14.3857 20.4414 14.1484 20.4514 13.911 20.4602L13.717 20.4662C13.224 20.4802 12.653 20.4872 11.528 20.4892L10.782 20.4902H9.47303C8.74329 20.4928 8.01355 20.4851 7.28403 20.4672L7.09003 20.4612C6.85264 20.4522 6.6153 20.4419 6.37803 20.4302C5.31403 20.3802 4.58803 20.2122 3.95003 19.9652C3.2827 19.7146 2.67824 19.3211 2.17903 18.8122C1.67007 18.3125 1.27625 17.7078 1.02503 17.0402C0.778028 16.4032 0.610028 15.6772 0.560028 14.6122C0.548886 14.375 0.538886 14.1376 0.530028 13.9002L0.525028 13.7062C0.5066 12.9771 0.498266 12.2476 0.500028 11.5182V9.46223C0.497237 8.73283 0.504571 8.00343 0.522028 7.27423L0.529028 7.08023C0.537028 6.85523 0.547028 6.63423 0.559028 6.36823C0.609028 5.30323 0.777028 4.57823 1.02403 3.94023C1.27514 3.27214 1.66975 2.66726 2.18003 2.16823C2.67912 1.65971 3.28317 1.26622 3.95003 1.01523C4.58803 0.768234 5.31303 0.600234 6.37803 0.550234C6.64403 0.538234 6.86603 0.528234 7.09003 0.520234L7.28403 0.514234C8.01322 0.496467 8.74262 0.4888 9.47203 0.491234L11.528 0.490234ZM10.5 5.49023C9.17395 5.49023 7.90218 6.01702 6.96449 6.9547C6.02681 7.89238 5.50003 9.16415 5.50003 10.4902C5.50003 11.8163 6.02681 13.0881 6.96449 14.0258C7.90218 14.9635 9.17395 15.4902 10.5 15.4902C11.8261 15.4902 13.0979 14.9635 14.0356 14.0258C14.9732 13.0881 15.5 11.8163 15.5 10.4902C15.5 9.16415 14.9732 7.89238 14.0356 6.9547C13.0979 6.01702 11.8261 5.49023 10.5 5.49023ZM10.5 7.49023C10.894 7.49017 11.2841 7.5677 11.6481 7.7184C12.0121 7.86911 12.3429 8.09003 12.6215 8.36856C12.9001 8.64709 13.1212 8.97777 13.272 9.34172C13.4228 9.70567 13.5005 10.0958 13.5005 10.4897C13.5006 10.8837 13.4231 11.2738 13.2724 11.6378C13.1217 12.0018 12.9007 12.3326 12.6222 12.6112C12.3437 12.8898 12.013 13.1109 11.649 13.2617C11.2851 13.4125 10.895 13.4902 10.501 13.4902C9.70538 13.4902 8.94232 13.1742 8.37971 12.6116C7.8171 12.0489 7.50103 11.2859 7.50103 10.4902C7.50103 9.69458 7.8171 8.93152 8.37971 8.36891C8.94232 7.8063 9.70538 7.49023 10.501 7.49023M15.751 3.99023C15.4195 3.99023 15.1016 4.12193 14.8671 4.35635C14.6327 4.59077 14.501 4.90871 14.501 5.24023C14.501 5.57175 14.6327 5.8897 14.8671 6.12412C15.1016 6.35854 15.4195 6.49023 15.751 6.49023C16.0825 6.49023 16.4005 6.35854 16.6349 6.12412C16.8693 5.8897 17.001 5.57175 17.001 5.24023C17.001 4.90871 16.8693 4.59077 16.6349 4.35635C16.4005 4.12193 16.0825 3.99023 15.751 3.99023Z" fill="#0171C9"/>
</svg>
