<svg width="24" height="20" viewBox="0 0 24 20" fill="none" xmlns="http://www.w3.org/2000/svg">
<g clipPath="url(#clip0_1113_2090)">
<path d="M4.36311 19.4051V18.1476C4.36311 17.6655 4.07492 17.3511 3.58095 17.3511C3.33401 17.3511 3.06645 17.435 2.8812 17.7075C2.7372 17.4769 2.53142 17.3511 2.2227 17.3511C2.01683 17.3511 1.81114 17.414 1.64642 17.6445V17.3931H1.21423V19.4051H1.64642V18.2943C1.64642 17.938 1.83167 17.7703 2.11986 17.7703C2.40786 17.7703 2.55205 17.959 2.55205 18.2943V19.4051H2.98423V18.2943C2.98423 17.938 3.18992 17.7703 3.45748 17.7703C3.74567 17.7703 3.88967 17.959 3.88967 18.2943V19.4051H4.36311ZM10.7635 17.3931H10.0639V16.7852H9.63167V17.3931H9.24064V17.7912H9.63158V18.7135C9.63158 19.1747 9.81683 19.4471 10.3108 19.4471C10.496 19.4471 10.7017 19.3842 10.8459 19.3004L10.7224 18.9231C10.5989 19.0069 10.4549 19.0279 10.352 19.0279C10.1462 19.0279 10.0639 18.9022 10.0639 18.6925V17.7912H10.7635V17.3931ZM14.4269 17.351C14.18 17.351 14.0153 17.4769 13.9124 17.6445V17.3931H13.4802V19.4051H13.9124V18.2734C13.9124 17.938 14.0564 17.7494 14.324 17.7494C14.4063 17.7494 14.5092 17.7704 14.5915 17.7913L14.715 17.3721C14.6327 17.3511 14.5092 17.3511 14.4269 17.3511M8.89076 17.5608C8.68489 17.4141 8.3968 17.3512 8.08808 17.3512C7.5942 17.3512 7.26495 17.6027 7.26495 18.001C7.26495 18.3364 7.51189 18.5249 7.94408 18.5879L8.14986 18.6089C8.37626 18.6507 8.49973 18.7136 8.49973 18.8184C8.49973 18.9651 8.33511 19.0699 8.04692 19.0699C7.75883 19.0699 7.53242 18.9651 7.38833 18.8604L7.18255 19.1957C7.40895 19.3633 7.71767 19.4472 8.0263 19.4472C8.60258 19.4472 8.93192 19.1748 8.93192 18.7974C8.93192 18.4411 8.66436 18.2524 8.2527 18.1896L8.04692 18.1686C7.86167 18.1476 7.71767 18.1058 7.71767 17.9801C7.71767 17.8333 7.86167 17.7495 8.08808 17.7495C8.33511 17.7495 8.58205 17.8542 8.70551 17.9171L8.89076 17.5608ZM20.3747 17.3512C20.1276 17.3512 19.963 17.477 19.8601 17.6446V17.3932H19.4279V19.4052H19.8601V18.2735C19.8601 17.9381 20.0042 17.7495 20.2716 17.7495C20.354 17.7495 20.457 17.7705 20.5393 17.7914L20.6628 17.3722C20.5805 17.3512 20.457 17.3512 20.3747 17.3512ZM14.8591 18.3992C14.8591 19.007 15.2706 19.4472 15.9087 19.4472C16.1968 19.4472 16.4026 19.3843 16.6084 19.2167L16.4026 18.8604C16.238 18.9861 16.0733 19.0489 15.8881 19.0489C15.5382 19.0489 15.2913 18.7974 15.2913 18.3992C15.2913 18.022 15.5382 17.7704 15.8881 17.7495C16.0733 17.7495 16.238 17.8123 16.4026 17.9381L16.6084 17.5818C16.4026 17.4141 16.1968 17.3512 15.9087 17.3512C15.2706 17.3512 14.8591 17.7914 14.8591 18.3992ZM18.8517 18.3992V17.3932H18.4195V17.6446C18.2754 17.4561 18.0696 17.3512 17.8021 17.3512C17.2464 17.3512 16.8142 17.7914 16.8142 18.3992C16.8142 19.007 17.2464 19.4472 17.8021 19.4472C18.0902 19.4472 18.296 19.3424 18.4195 19.1538V19.4052H18.8517V18.3992ZM17.267 18.3992C17.267 18.0429 17.4934 17.7495 17.8638 17.7495C18.2136 17.7495 18.4607 18.022 18.4607 18.3992C18.4607 18.7555 18.2136 19.0489 17.8638 19.0489C17.4934 19.0279 17.267 18.7555 17.267 18.3992ZM12.1013 17.3512C11.525 17.3512 11.1134 17.7704 11.1134 18.3992C11.1134 19.028 11.525 19.4472 12.1219 19.4472C12.41 19.4472 12.6981 19.3633 12.9245 19.1748L12.7187 18.8604C12.554 18.9861 12.3483 19.0699 12.1425 19.0699C11.8749 19.0699 11.6074 18.9442 11.5456 18.5878H13.0069V18.4202C13.0275 17.7704 12.6571 17.3512 12.1013 17.3512ZM12.1012 17.7285C12.3687 17.7285 12.554 17.8962 12.5951 18.2106H11.5661C11.6073 17.9381 11.7925 17.7285 12.1012 17.7285ZM22.8236 18.3992V16.5967H22.3914V17.6446C22.2473 17.4561 22.0415 17.3512 21.774 17.3512C21.2183 17.3512 20.7861 17.7914 20.7861 18.3992C20.7861 19.007 21.2183 19.4472 21.774 19.4472C22.0622 19.4472 22.268 19.3424 22.3914 19.1538V19.4052H22.8236V18.3992ZM21.239 18.3992C21.239 18.0429 21.4653 17.7495 21.8358 17.7495C22.1856 17.7495 22.4326 18.022 22.4326 18.3992C22.4326 18.7555 22.1856 19.0489 21.8358 19.0489C21.4653 19.0279 21.239 18.7555 21.239 18.3992ZM6.79142 18.3992V17.3932H6.35923V17.6446C6.21514 17.4561 6.00936 17.3512 5.7418 17.3512C5.18614 17.3512 4.75395 17.7914 4.75395 18.3992C4.75395 19.007 5.18614 19.4472 5.7418 19.4472C6.02998 19.4472 6.23576 19.3424 6.35923 19.1538V19.4052H6.79142V18.3992ZM5.18614 18.3992C5.18614 18.0429 5.41255 17.7495 5.78295 17.7495C6.13283 17.7495 6.37986 18.022 6.37986 18.3992C6.37986 18.7555 6.13283 19.0489 5.78295 19.0489C5.41255 19.0279 5.18614 18.7555 5.18614 18.3992Z" fill="black"/>
<path d="M8.7467 2.11426H15.2295V13.9774H8.7467V2.11426Z" fill="#FF5F00"/>
<path d="M9.15834 8.04548C9.15834 5.63516 10.2697 3.49723 11.9778 2.11385C10.7225 1.10781 9.13781 0.5 7.40906 0.5C3.31341 0.5 0 3.87446 0 8.04548C0 12.2164 3.31341 15.591 7.40897 15.591C9.13772 15.591 10.7224 14.9832 11.9778 13.977C10.2697 12.6146 9.15834 10.4558 9.15834 8.04548Z" fill="#EB001B"/>
<path d="M23.9762 8.04548C23.9762 12.2164 20.6628 15.591 16.5672 15.591C14.8385 15.591 13.2538 14.9832 11.9984 13.977C13.7272 12.5937 14.8179 10.4558 14.8179 8.04548C14.8179 5.63516 13.7065 3.49723 11.9984 2.11385C13.2537 1.10781 14.8385 0.5 16.5672 0.5C20.6628 0.5 23.9762 3.89546 23.9762 8.04548Z" fill="#F79E1B"/>
</g>
<defs>
<clipPath id="clip0_1113_2090">
<rect width="24" height="19" fill="white" transform="translate(0 0.5)"/>
</clipPath>
</defs>
</svg>
