<svg width="14" height="14" viewBox="0 0 14 14" fill="none" xmlns="http://www.w3.org/2000/svg">
<path d="M13 7.99414H8V12.9941C8 13.2594 7.89464 13.5137 7.70711 13.7012C7.51957 13.8888 7.26522 13.9941 7 13.9941C6.73478 13.9941 6.48043 13.8888 6.29289 13.7012C6.10536 13.5137 6 13.2594 6 12.9941V7.99414H1C0.734784 7.99414 0.48043 7.88878 0.292893 7.70125C0.105357 7.51371 0 7.25936 0 6.99414C0 6.72892 0.105357 6.47457 0.292893 6.28703C0.48043 6.0995 0.734784 5.99414 1 5.99414H6V0.994141C6 0.728924 6.10536 0.47457 6.29289 0.287034C6.48043 0.0994972 6.73478 -0.00585938 7 -0.00585938C7.26522 -0.00585938 7.51957 0.0994972 7.70711 0.287034C7.89464 0.47457 8 0.728924 8 0.994141V5.99414H13C13.2652 5.99414 13.5196 6.0995 13.7071 6.28703C13.8946 6.47457 14 6.72892 14 6.99414C14 7.25936 13.8946 7.51371 13.7071 7.70125C13.5196 7.88878 13.2652 7.99414 13 7.99414Z" fill="#0171C9"/>
</svg>
