<svg width="18" height="17" viewBox="0 0 18 17" fill="none" xmlns="http://www.w3.org/2000/svg">
<path d="M9.33319 0.708495L11.7589 5.6397L17.1813 6.43065C17.2501 6.44088 17.3147 6.47012 17.3678 6.51508C17.4209 6.56004 17.4604 6.61893 17.4818 6.68512C17.5033 6.75131 17.5058 6.82218 17.4891 6.88973C17.4725 6.95728 17.4373 7.01884 17.3875 7.06747L13.4646 10.905L14.3908 16.3248C14.4027 16.3934 14.3952 16.4638 14.3692 16.5283C14.3431 16.5928 14.2995 16.6487 14.2432 16.6896C14.187 16.7305 14.1205 16.7549 14.0511 16.7599C13.9817 16.765 13.9124 16.7505 13.8508 16.7181L9.00055 14.1597L4.15029 16.7188C4.08879 16.7513 4.01941 16.7659 3.95002 16.761C3.88064 16.756 3.81404 16.7317 3.75779 16.6908C3.70154 16.6498 3.6579 16.594 3.63183 16.5295C3.60576 16.465 3.5983 16.3945 3.6103 16.326L4.53652 10.905L0.612475 7.06747C0.56272 7.01884 0.527531 6.95728 0.510871 6.88973C0.494211 6.82218 0.496741 6.75131 0.518177 6.68512C0.539613 6.61893 0.579104 6.56004 0.632201 6.51508C0.685298 6.47012 0.749894 6.44088 0.818712 6.43065L6.24112 5.6397L8.66791 0.708495C8.69818 0.646007 8.74543 0.593306 8.80426 0.556432C8.8631 0.519557 8.93112 0.5 9.00055 0.5C9.06999 0.5 9.13801 0.519557 9.19685 0.556432C9.25568 0.593306 9.30293 0.646007 9.33319 0.708495Z" fill="#FDB241"/>
</svg>
