<svg width="16" height="16" viewBox="0 0 16 16" fill="none" xmlns="http://www.w3.org/2000/svg">
<g clipPath="url(#clip0_1139_5123)">
<path d="M9.00004 4.33326C9.00004 4.59848 8.89468 4.85283 8.70714 5.04037C8.51961 5.2279 8.26525 5.33326 8.00004 5.33326C7.73482 5.33326 7.48047 5.2279 7.29293 5.04037C7.10539 4.85283 7.00004 4.59848 7.00004 4.33326C7.00004 4.06804 7.10539 3.81369 7.29293 3.62615C7.48047 3.43862 7.73482 3.33326 8.00004 3.33326C8.26525 3.33326 8.51961 3.43862 8.70714 3.62615C8.89468 3.81369 9.00004 4.06804 9.00004 4.33326ZM16 12.6666V8.22659C16.0249 6.17156 15.2714 4.18319 13.8909 2.66071C12.5104 1.13823 10.605 0.194352 8.55737 0.0185934C7.41447 -0.0613682 6.26773 0.105086 5.19473 0.506695C4.12173 0.908304 3.14751 1.5357 2.33798 2.34643C1.52845 3.15715 0.902503 4.1323 0.502485 5.2059C0.102468 6.27949 -0.0622869 7.42648 0.0193688 8.56926C0.314036 12.8053 4.0547 15.9999 8.72204 15.9999H12.6667C13.5504 15.9989 14.3977 15.6473 15.0226 15.0224C15.6475 14.3976 15.999 13.5503 16 12.6666ZM8.4667 1.34926C10.1777 1.50062 11.768 2.29387 12.9181 3.56963C14.0682 4.84539 14.6929 6.50914 14.6667 8.22659V12.6666C14.6667 13.197 14.456 13.7057 14.0809 14.0808C13.7058 14.4559 13.1971 14.6666 12.6667 14.6666H8.72204C4.69937 14.6666 1.60004 12.0666 1.35004 8.47726C1.2844 7.56298 1.40802 6.64499 1.71316 5.78064C2.0183 4.91629 2.4984 4.12415 3.12348 3.45371C3.74856 2.78327 4.50519 2.24894 5.34608 1.88409C6.18698 1.51925 7.09407 1.33173 8.0107 1.33326C8.16204 1.33326 8.3147 1.33926 8.4667 1.34926ZM9.33337 11.9999V7.99993C9.33337 7.64631 9.19289 7.30717 8.94285 7.05712C8.6928 6.80707 8.35366 6.66659 8.00004 6.66659H7.33337C7.15656 6.66659 6.98699 6.73683 6.86197 6.86186C6.73694 6.98688 6.6667 7.15645 6.6667 7.33326C6.6667 7.51007 6.73694 7.67964 6.86197 7.80467C6.98699 7.92969 7.15656 7.99993 7.33337 7.99993H8.00004V11.9999C8.00004 12.1767 8.07027 12.3463 8.1953 12.4713C8.32032 12.5964 8.48989 12.6666 8.6667 12.6666C8.84351 12.6666 9.01308 12.5964 9.13811 12.4713C9.26313 12.3463 9.33337 12.1767 9.33337 11.9999Z" fill="#18181B"/>
</g>
<defs>
<clipPath id="clip0_1139_5123">
<rect width="16" height="16" fill="white"/>
</clipPath>
</defs>
</svg>
