<svg width="25" height="25" viewBox="0 0 25 25" fill="none" xmlns="http://www.w3.org/2000/svg">
<g clip-path="url(#clip0_1139_5043)">
<path d="M24.2068 22.7937L18.2378 16.8247C19.8644 14.8353 20.6642 12.2968 20.4716 9.73427C20.2791 7.17174 19.109 4.78124 17.2034 3.05723C15.2977 1.33322 12.8024 0.407605 10.2334 0.471837C7.66447 0.536069 5.21849 1.58524 3.4014 3.40233C1.58431 5.21942 0.535138 7.6654 0.470906 10.2344C0.406674 12.8033 1.33229 15.2987 3.0563 17.2043C4.78031 19.1099 7.17081 20.28 9.73334 20.4726C12.2959 20.6651 14.8344 19.8653 16.8238 18.2387L22.7928 24.2077C22.9814 24.3899 23.234 24.4907 23.4962 24.4884C23.7584 24.4861 24.0092 24.3809 24.1946 24.1955C24.38 24.0101 24.4852 23.7593 24.4875 23.4971C24.4897 23.2349 24.3889 22.9823 24.2068 22.7937ZM10.4998 18.5007C8.91753 18.5007 7.37081 18.0315 6.05522 17.1525C4.73963 16.2734 3.71425 15.024 3.10875 13.5622C2.50324 12.1004 2.34482 10.4918 2.6535 8.93999C2.96218 7.38814 3.72411 5.96268 4.84293 4.84386C5.96175 3.72504 7.38721 2.96311 8.93906 2.65443C10.4909 2.34575 12.0994 2.50418 13.5613 3.10968C15.0231 3.71518 16.2725 4.74056 17.1515 6.05615C18.0306 7.37174 18.4998 8.91846 18.4998 10.5007C18.4974 12.6217 17.6538 14.6552 16.154 16.1549C14.6542 17.6547 12.6208 18.4983 10.4998 18.5007Z" fill="#888E9C"/>
</g>
<defs>
<clipPath id="clip0_1139_5043">
<rect width="24" height="24" fill="white" transform="translate(0.5 0.5)"/>
</clipPath>
</defs>
</svg>
