<svg width="16" height="16" viewBox="0 0 16 16" fill="none" xmlns="http://www.w3.org/2000/svg">
<g clip-path="url(#clip0_1139_5092)">
<path d="M14 8H12C11.6464 8 11.3072 8.14048 11.0572 8.39052C10.8071 8.64057 10.6667 8.97971 10.6667 9.33333C10.6667 9.68696 10.5262 10.0261 10.2761 10.2761C10.0261 10.5262 9.68696 10.6667 9.33333 10.6667H6.66667C6.31305 10.6667 5.97391 10.5262 5.72386 10.2761C5.47381 10.0261 5.33333 9.68696 5.33333 9.33333C5.33333 8.97971 5.19286 8.64057 4.94281 8.39052C4.69276 8.14048 4.35362 8 4 8H2C1.46957 8 0.960859 8.21071 0.585786 8.58579C0.210714 8.96086 0 9.46957 0 10L0 12.6667C0.00105857 13.5504 0.352588 14.3976 0.97748 15.0225C1.60237 15.6474 2.4496 15.9989 3.33333 16H12.6667C13.5504 15.9989 14.3976 15.6474 15.0225 15.0225C15.6474 14.3976 15.9989 13.5504 16 12.6667V10C16 9.46957 15.7893 8.96086 15.4142 8.58579C15.0391 8.21071 14.5304 8 14 8ZM14.6667 12.6667C14.6667 13.1971 14.456 13.7058 14.0809 14.0809C13.7058 14.456 13.1971 14.6667 12.6667 14.6667H3.33333C2.8029 14.6667 2.29419 14.456 1.91912 14.0809C1.54405 13.7058 1.33333 13.1971 1.33333 12.6667V10C1.33333 9.82319 1.40357 9.65362 1.5286 9.5286C1.65362 9.40357 1.82319 9.33333 2 9.33333H4C4 10.0406 4.28095 10.7189 4.78105 11.219C5.28115 11.719 5.95942 12 6.66667 12H9.33333C10.0406 12 10.7189 11.719 11.219 11.219C11.719 10.7189 12 10.0406 12 9.33333H14C14.1768 9.33333 14.3464 9.40357 14.4714 9.5286C14.5964 9.65362 14.6667 9.82319 14.6667 10V12.6667Z" fill="#8C26FF"/>
<path d="M2.00016 6.66646H14.0002C14.177 6.66646 14.3465 6.59622 14.4716 6.4712C14.5966 6.34617 14.6668 6.17661 14.6668 5.9998C14.6668 5.82298 14.5966 5.65342 14.4716 5.52839C14.3465 5.40337 14.177 5.33313 14.0002 5.33313H2.00016C1.82335 5.33313 1.65378 5.40337 1.52876 5.52839C1.40373 5.65342 1.3335 5.82298 1.3335 5.9998C1.3335 6.17661 1.40373 6.34617 1.52876 6.4712C1.65378 6.59622 1.82335 6.66646 2.00016 6.66646Z" fill="#8C26FF"/>
<path d="M2.00016 4.0002H14.0002C14.177 4.0002 14.3465 3.92996 14.4716 3.80494C14.5966 3.67991 14.6668 3.51035 14.6668 3.33354C14.6668 3.15672 14.5966 2.98716 14.4716 2.86213C14.3465 2.73711 14.177 2.66687 14.0002 2.66687H2.00016C1.82335 2.66687 1.65378 2.73711 1.52876 2.86213C1.40373 2.98716 1.3335 3.15672 1.3335 3.33354C1.3335 3.51035 1.40373 3.67991 1.52876 3.80494C1.65378 3.92996 1.82335 4.0002 2.00016 4.0002Z" fill="#8C26FF"/>
</g>
<defs>
<clipPath id="clip0_1139_5092">
<rect width="16" height="16" fill="white"/>
</clipPath>
</defs>
</svg>
