<svg width="24" height="25" viewBox="0 0 24 25" fill="none" xmlns="http://www.w3.org/2000/svg">
<g clipPath="url(#clip0_1139_5046)">
<path d="M11.476 15.5C11.2108 15.5 10.9564 15.6054 10.7689 15.7929C10.5814 15.9804 10.476 16.2348 10.476 16.5V19.5C10.476 20.2956 10.1599 21.0587 9.59732 21.6213C9.03471 22.1839 8.27165 22.5 7.476 22.5H5C4.20435 22.5 3.44129 22.1839 2.87868 21.6213C2.31607 21.0587 2 20.2956 2 19.5V5.5C2 4.70435 2.31607 3.94129 2.87868 3.37868C3.44129 2.81607 4.20435 2.5 5 2.5H7.476C8.27165 2.5 9.03471 2.81607 9.59732 3.37868C10.1599 3.94129 10.476 4.70435 10.476 5.5V8.5C10.476 8.76522 10.5814 9.01957 10.7689 9.20711C10.9564 9.39464 11.2108 9.5 11.476 9.5C11.7412 9.5 11.9956 9.39464 12.1831 9.20711C12.3706 9.01957 12.476 8.76522 12.476 8.5V5.5C12.4744 4.17441 11.9471 2.90356 11.0098 1.96622C10.0724 1.02888 8.80159 0.501588 7.476 0.5H5C3.67441 0.501588 2.40356 1.02888 1.46622 1.96622C0.528882 2.90356 0.00158786 4.17441 0 5.5L0 19.5C0.00158786 20.8256 0.528882 22.0964 1.46622 23.0338C2.40356 23.9711 3.67441 24.4984 5 24.5H7.476C8.80159 24.4984 10.0724 23.9711 11.0098 23.0338C11.9471 22.0964 12.4744 20.8256 12.476 19.5V16.5C12.476 16.2348 12.3706 15.9804 12.1831 15.7929C11.9956 15.6054 11.7412 15.5 11.476 15.5Z" fill="#374957"/>
<path d="M22.867 10.3792L18.281 5.7932C18.1888 5.69769 18.0784 5.62151 17.9564 5.5691C17.8344 5.51669 17.7032 5.48911 17.5704 5.48795C17.4376 5.4868 17.3059 5.5121 17.183 5.56238C17.0602 5.61266 16.9485 5.68692 16.8546 5.78081C16.7607 5.8747 16.6865 5.98635 16.6362 6.10925C16.5859 6.23215 16.5606 6.36383 16.5618 6.4966C16.5629 6.62938 16.5905 6.7606 16.6429 6.88261C16.6953 7.00461 16.7715 7.11496 16.867 7.2072L21.129 11.4702L6 11.5002C5.73478 11.5002 5.48043 11.6056 5.29289 11.7931C5.10536 11.9806 5 12.235 5 12.5002C5 12.7654 5.10536 13.0198 5.29289 13.2073C5.48043 13.3948 5.73478 13.5002 6 13.5002L21.188 13.4692L16.865 17.7932C16.7695 17.8855 16.6933 17.9958 16.6409 18.1178C16.5885 18.2398 16.5609 18.371 16.5598 18.5038C16.5586 18.6366 16.5839 18.7683 16.6342 18.8912C16.6845 19.0141 16.7587 19.1257 16.8526 19.2196C16.9465 19.3135 17.0582 19.3877 17.181 19.438C17.3039 19.4883 17.4356 19.5136 17.5684 19.5125C17.7012 19.5113 17.8324 19.4837 17.9544 19.4313C18.0764 19.3789 18.1868 19.3027 18.279 19.2072L22.865 14.6212C23.4277 14.0589 23.744 13.2961 23.7444 12.5006C23.7447 11.7051 23.4292 10.9421 22.867 10.3792Z" fill="#374957"/>
</g>
<defs>
<clipPath id="clip0_1139_5046">
<rect width="24" height="24" fill="white" transform="translate(0 0.5)"/>
</clipPath>
</defs>
</svg>
