<svg width="21" height="21" viewBox="0 0 21 21" fill="none" xmlns="http://www.w3.org/2000/svg">
<path d="M11.5281 0.5C12.6531 0.503 13.2241 0.509 13.7171 0.523L13.9111 0.53C14.1351 0.538 14.3561 0.548 14.6231 0.56C15.6871 0.61 16.4131 0.778 17.0501 1.025C17.7101 1.279 18.2661 1.623 18.8221 2.178C19.3306 2.6779 19.724 3.28259 19.9751 3.95C20.2221 4.587 20.3901 5.313 20.4401 6.378C20.4521 6.644 20.4621 6.865 20.4701 7.09L20.4761 7.284C20.4911 7.776 20.4971 8.347 20.4991 9.472L20.5001 10.218V11.528C20.5025 12.2574 20.4949 12.9868 20.4771 13.716L20.4711 13.91C20.4631 14.135 20.4531 14.356 20.4411 14.622C20.3911 15.687 20.2211 16.412 19.9751 17.05C19.7248 17.7178 19.3312 18.3226 18.8221 18.822C18.3221 19.3303 17.7174 19.7238 17.0501 19.975C16.4131 20.222 15.6871 20.39 14.6231 20.44C14.3858 20.4512 14.1485 20.4612 13.9111 20.47L13.7171 20.476C13.2241 20.49 12.6531 20.497 11.5281 20.499L10.7821 20.5H9.47309C8.74335 20.5025 8.01361 20.4949 7.28409 20.477L7.09009 20.471C6.8527 20.462 6.61536 20.4517 6.37809 20.44C5.31409 20.39 4.58809 20.222 3.95009 19.975C3.28276 19.7244 2.67831 19.3308 2.17909 18.822C1.67013 18.3223 1.27631 17.7176 1.02509 17.05C0.778089 16.413 0.610089 15.687 0.560089 14.622C0.548947 14.3847 0.538947 14.1474 0.530089 13.91L0.525089 13.716C0.506661 12.9868 0.498327 12.2574 0.500089 11.528V9.472C0.497298 8.7426 0.504632 8.0132 0.522089 7.284L0.529089 7.09C0.537089 6.865 0.547089 6.644 0.559089 6.378C0.609089 5.313 0.777089 4.588 1.02409 3.95C1.2752 3.2819 1.66981 2.67702 2.18009 2.178C2.67918 1.66947 3.28323 1.27599 3.95009 1.025C4.58809 0.778 5.31309 0.61 6.37809 0.56C6.64409 0.548 6.86609 0.538 7.09009 0.53L7.28409 0.524C8.01328 0.506233 8.74268 0.498565 9.47209 0.501L11.5281 0.5ZM10.5001 5.5C9.17401 5.5 7.90224 6.02678 6.96455 6.96447C6.02687 7.90215 5.50009 9.17392 5.50009 10.5C5.50009 11.8261 6.02687 13.0979 6.96455 14.0355C7.90224 14.9732 9.17401 15.5 10.5001 15.5C11.8262 15.5 13.0979 14.9732 14.0356 14.0355C14.9733 13.0979 15.5001 11.8261 15.5001 10.5C15.5001 9.17392 14.9733 7.90215 14.0356 6.96447C13.0979 6.02678 11.8262 5.5 10.5001 5.5ZM10.5001 7.5C10.8941 7.49993 11.2842 7.57747 11.6482 7.72817C12.0122 7.87887 12.3429 8.0998 12.6216 8.37833C12.9002 8.65686 13.1212 8.98754 13.272 9.35149C13.4229 9.71544 13.5005 10.1055 13.5006 10.4995C13.5007 10.8935 13.4231 11.2836 13.2724 11.6476C13.1217 12.0116 12.9008 12.3423 12.6223 12.621C12.3437 12.8996 12.0131 13.1206 11.6491 13.2714C11.2851 13.4223 10.8951 13.4999 10.5011 13.5C9.70544 13.5 8.94238 13.1839 8.37977 12.6213C7.81716 12.0587 7.50109 11.2956 7.50109 10.5C7.50109 9.70435 7.81716 8.94129 8.37977 8.37868C8.94238 7.81607 9.70544 7.5 10.5011 7.5M15.7511 4C15.4196 4 15.1016 4.1317 14.8672 4.36612C14.6328 4.60054 14.5011 4.91848 14.5011 5.25C14.5011 5.58152 14.6328 5.89946 14.8672 6.13388C15.1016 6.3683 15.4196 6.5 15.7511 6.5C16.0826 6.5 16.4006 6.3683 16.635 6.13388C16.8694 5.89946 17.0011 5.58152 17.0011 5.25C17.0011 4.91848 16.8694 4.60054 16.635 4.36612C16.4006 4.1317 16.0826 4 15.7511 4Z" fill="#0171C9"/>
</svg>
