<svg width="25" height="25" viewBox="0 0 25 25" fill="none" xmlns="http://www.w3.org/2000/svg">
<path fill-rule="evenodd" clip-rule="evenodd" d="M12.5 1.90234C9.68955 1.90234 6.99422 3.01879 5.00693 5.00607C3.01964 6.99336 1.9032 9.6887 1.9032 12.4991C1.9032 15.3096 3.01964 18.0049 5.00693 19.9922C6.99422 21.9795 9.68955 23.0959 12.5 23.0959C15.3104 23.0959 18.0058 21.9795 19.9931 19.9922C21.9804 18.0049 23.0968 15.3096 23.0968 12.4991C23.0968 9.6887 21.9804 6.99336 19.9931 5.00607C18.0058 3.01879 15.3104 1.90234 12.5 1.90234ZM3.4232 12.4991C3.4232 10.0918 4.3795 7.78311 6.08173 6.08088C7.78396 4.37865 10.0927 3.42234 12.5 3.42234C14.9073 3.42234 17.216 4.37865 18.9183 6.08088C20.6205 7.78311 21.5768 10.0918 21.5768 12.4991C21.5768 14.9065 20.6205 17.2152 18.9183 18.9174C17.216 20.6196 14.9073 21.5759 12.5 21.5759C10.0927 21.5759 7.78396 20.6196 6.08173 18.9174C4.3795 17.2152 3.4232 14.9065 3.4232 12.4991ZM12.5 15.6991C13.3487 15.6991 14.1626 15.362 14.7627 14.7619C15.3629 14.1618 15.7 13.3478 15.7 12.4991C15.7 11.6505 15.3629 10.8365 14.7627 10.2364C14.1626 9.63629 13.3487 9.29914 12.5 9.29914C11.6513 9.29914 10.8374 9.63629 10.2373 10.2364C9.63714 10.8365 9.3 11.6505 9.3 12.4991C9.3 13.3478 9.63714 14.1618 10.2373 14.7619C10.8374 15.362 11.6513 15.6991 12.5 15.6991Z" fill="#0171C9"/>
</svg>
